<?xml version="1.0" standalone="no"?>
<!DOCTYPE svg PUBLIC "-//W3C//DTD SVG 1.1//EN" "http://www.w3.org/Graphics/SVG/1.1/DTD/svg11.dtd" >
<svg xmlns="http://www.w3.org/2000/svg">
<metadata>
This is a custom SVG webfont generated by Font Squirrel.
Copyright   : c Copyright 19951997 International Typeface Corporation  All rights reserved
</metadata>
<defs>
<font id="ConduitITCBold" horiz-adv-x="1038" >
<font-face units-per-em="2048" ascent="1638" descent="-410" />
<missing-glyph horiz-adv-x="362" />
<glyph unicode=" "  horiz-adv-x="362" />
<glyph unicode="&#x09;" horiz-adv-x="362" />
<glyph unicode="&#xa0;" horiz-adv-x="362" />
<glyph unicode="!" horiz-adv-x="569" d="M176 117q0 57 41 97t96.5 40t96.5 -41t41 -96.5t-41 -96t-97 -40.5q-57 0 -97 41t-40 96zM197 735v535q0 20 20 20h193q20 0 20 -20v-535l-43 -364q-2 -18 -20 -19h-103q-18 0 -20 19z" />
<glyph unicode="&#x22;" horiz-adv-x="647" d="M68 1268v4q0 18 20 18h197q20 0 20 -18v-4l-47 -369q-4 -18 -20 -18h-101q-18 0 -20 18zM342 1268v4q0 18 20 18h197q20 0 21 -18v-4l-48 -369q-4 -18 -20 -18h-102q-16 0 -21 18z" />
<glyph unicode="#" horiz-adv-x="1138" d="M55 365l2 4v4l47 174q2 20 25 20h131q16 0 21 17l32 114q0 2 2 7q0 18 -22 18h-131q-16 0 -17 12l2 2v6l48 175q2 20 24 20h150q16 0 20 16l90 322q2 14 21 14h123q23 0 22 -18q0 -2 -1 -4t-1 -4l-84 -299q0 -2 -1 -4.5t-1 -4.5q0 -18 23 -18h157q14 0 21 16l94 322 q2 14 20 14h123q23 0 23 -18q0 -2 -1 -4t-1 -4l-84 -299q0 -2 -2 -7v-2q0 -18 22 -18h117q16 0 16 -16v-4l-47 -175q-6 -20 -26 -20h-133q-18 0 -21 -12l-33 -117l-2 -4v-4q0 -18 23 -19h133q16 0 16 -16v-4l-47 -174q-6 -20 -26 -21h-148q-16 0 -20 -12l-95 -326 q-2 -14 -20 -14h-121q-23 0 -22 18v2q2 4 2 7l82 301l2 2v4q0 18 -23 18h-160q-18 0 -20 -12l-92 -326q-2 -14 -21 -14h-123q-23 0 -22 18l2 2v7l86 301v2q2 2 2 4q0 18 -23 18h-116q-17 1 -17 13zM453 586q0 -18 22 -19h158q16 0 20 17l33 114q0 2 2 7q0 18 -22 18h-158 q-18 0 -21 -12l-32 -117v-4z" />
<glyph unicode="$" d="M92 948q0 233 203 330q37 18 81 24.5t65.5 9.5t21.5 19v55q0 20 20 21h107q20 0 20 -21v-59q0 -14 11.5 -19t47.5 -11.5t68 -16.5q59 -20 111 -74q90 -96 90 -137q0 -10 -12 -16l-178 -88q-4 -2 -11 -2q-8 0 -30 36q-45 82 -82 82q-14 0 -15 -22v-289l11 -16 q338 -150 337 -422q0 -106 -55 -194.5t-139 -119.5q-37 -14 -80 -22t-58.5 -13.5t-15.5 -21.5v-57q0 -20 -20 -21h-107q-20 0 -20 21v55q0 16 -26.5 20.5t-79 12.5t-95.5 31q-66 35 -114 102.5t-48 99.5q0 8 13 15l176 88q4 2 10 2q4 0 8 -4t10 -14l13 -18q6 -9 16 -27.5 t21 -33.5q20 -37 75 -36q20 0 21 20v322q-2 8 -8 15t-19.5 14t-27 13.5t-38 16.5t-42.5 18q-236 117 -236 332zM326 956q0 -47 40 -89t83 -42q14 0 14 21v225q0 20 -21 21q-41 0 -78.5 -43.5t-37.5 -92.5zM610 227q0 -20 15 -20q35 0 67.5 41t32.5 94q0 47 -34 88t-66 41 q-14 0 -15 -22v-222z" />
<glyph unicode="%" horiz-adv-x="1120" d="M94 899v191q0 90 56.5 145t148.5 55q94 0 150.5 -53t56.5 -141v-197q0 -88 -56.5 -141t-150.5 -53t-149.5 53t-55.5 141zM217 16q0 4 4 13l535 1249q2 6 18 12h109q23 0 22 -16q0 -4 -4 -12l-534 -1250q-6 -12 -19 -12h-108q-23 0 -23 16zM260 899q0 -39 39 -39 q16 0 28.5 12.5t12.5 26.5v197q0 14 -12.5 26.5t-28.5 12.5q-39 0 -39 -39v-197zM616 195v196q0 88 55.5 141.5t149.5 53.5t149.5 -53.5t55.5 -141.5v-196q0 -88 -55.5 -141.5t-149.5 -53.5t-149.5 53.5t-55.5 141.5zM782 195q0 -39 39 -39t39 39v196q0 39 -39 39t-39 -39 v-196z" />
<glyph unicode="&#x26;" horiz-adv-x="1253" d="M109 358v50q0 82 41 137l79 110q0 6 -88 123q-33 43 -32 146q0 180 102 283.5t278 103.5q174 0 277.5 -103.5t103.5 -279.5v-39q0 -100 -69 -195q-14 -18 -37 -31.5t-38 -21.5t-15 -16q0 -12 31.5 -43t41.5 -31q6 0 15.5 13.5t33 45t50.5 60.5q82 92 256 92h63 q20 0 21 -21v-192q0 -20 -21 -21h-80q-61 0 -103 -42t-42 -105v-27l6 -14q20 -25 42 -43t50.5 -31.5t40.5 -19.5t48 -16.5t40 -12.5q18 -6 19 -20v-197q0 -14 -9.5 -17t-37.5 -3q-106 0 -226 71q-90 57 -92 57.5t-113 -83.5q-59 -45 -196 -45h-60q-176 0 -278 101t-102 277z M342 342q0 -61 43 -104t104 -43h60q80 0 137 81q4 4 4 7q0 27 -69.5 96.5t-190.5 144.5h-20q-68 -53 -68 -123v-59zM342 948q0 -98 143 -186l15 -4q137 41 137 151v39q0 59 -43 103.5t-104.5 44.5t-104.5 -43.5t-43 -104.5z" />
<glyph unicode="'" horiz-adv-x="372" d="M68 1268v4q0 18 20 18h197q20 0 20 -18v-4l-47 -369q-4 -18 -20 -18h-101q-18 0 -20 18z" />
<glyph unicode="(" horiz-adv-x="745" d="M168 29v1075q0 168 98 266q49 49 125 82t141 33q45 0 46 -21v-176q0 -6 -1.5 -9t-5.5 -6t-8 -5t-12 -3t-15.5 -3t-19.5 -4.5t-22 -4.5q-37 -8 -65 -45t-28 -84v-1114q0 -47 28 -85t65 -46q10 -2 22 -4t19.5 -4t15.5 -3t12 -3t8 -5t5.5 -6.5t1.5 -9.5v-176q0 -20 -46 -20 q-66 0 -141.5 32.5t-124.5 81.5q-98 99 -98 267z" />
<glyph unicode=")" horiz-adv-x="745" d="M168 -156q0 8 2 12.5t9 7.5t14.5 4t22.5 4t28 5q41 10 69.5 47t28.5 86v1114q0 49 -27.5 85t-70.5 46q-12 2 -27.5 5.5t-23 4.5t-14.5 4t-9 7t-2 12v176q0 20 41 21q154 0 261.5 -105.5t107.5 -275.5v-1075q0 -168 -99 -267q-49 -51 -126 -82.5t-144 -31.5q-41 0 -41 20 v176z" />
<glyph unicode="*" horiz-adv-x="798" d="M41 948q0 10 14 17l158 63q14 6 14 18.5t-14 18.5l-156 68q-14 6 -14 16q0 4 4 12l82 142q6 12 16 12q6 0 15 -6l129 -107q6 -6 16 -6q16 0 17 21v6l-23 163v5q0 18 20 18h162q20 0 21 -18v-5l-23 -165v-4q0 -23 17 -23q8 0 16 6l137 109q10 6 15 6q10 0 16 -12l80 -140 q4 -8 4 -12q0 -10 -14 -16l-162 -70q-16 -6 -16.5 -18.5t16.5 -18.5l164 -63q14 -6 14 -17q0 -4 -4 -12l-82 -139q-6 -12 -16 -13q-4 0 -15 7l-139 100q-12 8 -18 8q-14 0 -15 -18v-7l25 -174v-4q0 -18 -21 -18h-162q-20 0 -20 18v4l23 172v7q0 18 -15 18q-6 0 -18 -8 l-131 -103q-10 -6 -15 -6q-10 0 -16 13l-82 143q-4 8 -4 12z" />
<glyph unicode="+" d="M80 430v135q0 20 20 21h310q20 0 20 20v312q0 20 21 20h135q20 0 20 -20v-312q0 -20 21 -20h311q20 0 20 -21v-135q0 -20 -20 -20h-311q-20 0 -21 -21v-309q0 -20 -20 -21h-135q-20 0 -21 21v309q0 20 -20 21h-310q-20 0 -20 20z" />
<glyph unicode="," horiz-adv-x="471" d="M70 -131q0 6 22.5 23.5t46 48t23.5 67.5q0 23 -21 23h-22q-20 0 -21 20v199q0 20 21 20h233q20 0 21 -20v-150q0 -141 -62 -233q-37 -53 -91 -91t-75 -38q-10 0 -16 10l-55 109q-4 8 -4 12z" />
<glyph unicode="-" horiz-adv-x="569" d="M80 373v192q0 20 20 21h369q20 0 20 -21v-192q0 -20 -20 -21h-369q-20 1 -20 21z" />
<glyph unicode="." horiz-adv-x="471" d="M98 117q0 57 40 97t98 40q55 0 96 -41t41 -96.5t-41 -96t-96 -40.5q-57 0 -97.5 41t-40.5 96z" />
<glyph unicode="/" horiz-adv-x="675" d="M-16 16q0 4 4 13l534 1249q2 6 19 12h129q23 0 22 -16q0 -4 -4 -12l-534 -1250q-4 -10 -19 -12h-129q-22 0 -22 16z" />
<glyph unicode="0" d="M109 342v606q0 164 104 263.5t276 99.5h60q172 0 276.5 -99.5t104.5 -263.5v-606q0 -162 -104.5 -262t-276.5 -100h-60q-172 0 -276 99t-104 263zM342 342q0 -61 43 -104t104 -43h60q61 0 103 42t42 105v606q0 63 -42 105.5t-103 42.5h-60q-61 0 -104 -43t-43 -105v-606z " />
<glyph unicode="1" d="M176 926q0 6 8 14l342 344l15 6h110q20 0 21 -20v-1034q0 -20 20 -21h193q20 0 20 -20v-175q0 -20 -20 -20h-662q-20 0 -20 20v175q0 20 20 20h193q20 0 20 21v600q0 23 -18 22q-8 0 -17 -8l-61 -64q-8 -8 -14.5 -8t-14.5 8l-127 125q-8 9 -8 15z" />
<glyph unicode="2" d="M98 1069q0 14 24.5 56t67.5 87q98 98 271 99h74q172 0 276 -99.5t104 -263.5q0 -102 -42 -180t-104 -130t-181 -126t-167 -125t-48 -131v-20q0 -20 20 -21h488q20 0 20 -20v-175q0 -20 -20 -20h-723q-20 0 -21 20v236q0 156 85 264.5t272 216.5q102 61 145 104.5 t43 106.5q0 61 -44 104.5t-103 43.5h-74q-72 0 -115 -66q-8 -12 -16 -26.5t-12.5 -22.5t-9.5 -14t-9 -6l-12 4l-176 90q-13 6 -13 14z" />
<glyph unicode="3" d="M98 1069q0 14 24.5 56t67.5 87q98 98 271 99h57q174 0 278.5 -104.5t104.5 -278.5v-29q0 -78 -49 -143q-16 -23 -34.5 -45.5t-27 -32.5t-8.5 -14.5t8.5 -13.5t26 -30.5t31.5 -44.5q53 -76 53 -157v-60q0 -174 -103.5 -276t-279.5 -102h-57q-174 0 -268 96q-45 45 -69 88 t-24 61q0 8 13 15l178 88q4 2 10 2q2 0 5 -1t6 -4t5 -6.5t5.5 -9.5t5.5 -11t6 -14.5t8 -15.5q37 -74 119 -73h57q59 0 103.5 43t44.5 104v70q0 61 -42 103t-106 42h-184q-20 0 -21 21v174q0 20 21 20h184q59 0 103.5 43t44.5 105v28q0 61 -44 104.5t-104 43.5h-57 q-72 0 -115 -66q-8 -12 -16 -26.5t-12.5 -22.5t-9.5 -14t-9 -6l-12 4l-176 90q-13 6 -13 14z" />
<glyph unicode="4" d="M53 303v174l535 805l16 8h189q20 0 20 -20v-752q0 -20 21 -20h133q20 0 20 -21v-174q0 -20 -20 -20h-133q-20 0 -21 -21v-242q0 -20 -20 -20h-195q-20 0 -20 20v242q0 20 -21 21h-483q-21 0 -21 20zM324 514q0 -16 22 -16h211q20 0 21 20v318q0 25 -19 24q-10 0 -18 -12 l-211 -318q-6 -10 -6 -16z" />
<glyph unicode="5" d="M133 225q0 8 12 15l177 88q4 2 10 2q10 0 16 -15q47 -121 144 -120h59q61 0 103 42t42 105v70q0 61 -42 103t-103 42h-342q-20 0 -21 21v692q0 20 21 20h682q20 0 20 -20v-174q0 -20 -20 -21h-447q-20 0 -20 -20v-262q0 -20 20 -21h107q176 0 278.5 -101.5t102.5 -275.5 v-37q0 -176 -102.5 -277t-278.5 -101h-59q-178 0 -269 96q-45 45 -67.5 88t-22.5 61z" />
<glyph unicode="6" d="M109 342v606q0 164 104 263.5t276 99.5h62q139 0 233 -68q53 -39 92 -95t39 -79q0 -10 -12 -16l-178 -86q-4 -2 -10 -2q-10 0 -27 30q-31 53 -60.5 77t-76.5 24h-62q-61 0 -103 -42t-42 -106v-186q0 -23 14 -23q6 0 57.5 21.5t94.5 21.5h61q158 0 260.5 -102t102.5 -260 v-78q0 -164 -104.5 -263t-278.5 -99h-62q-172 0 -276 99t-104 263zM344 342q0 -63 42 -105t103 -42h62q61 0 104 43t43 104v78q0 59 -43 103t-104 44h-62q-61 0 -103 -42t-42 -105v-78z" />
<glyph unicode="7" d="M158 1096v174q0 20 20 20h721q20 0 21 -20v-236q0 -158 -71 -256t-235 -211q-70 -47 -101.5 -73.5t-57 -66.5t-25.5 -85v-322q0 -20 -20 -20h-193q-20 0 -20 20v322q0 135 62.5 226t201.5 188q137 96 170 133q55 63 55 145v21q0 20 -20 20h-488q-20 1 -20 21z" />
<glyph unicode="8" d="M109 358v50q0 82 51 155q16 23 33.5 45.5l24.5 31.5t7 13q0 2 -69 95q-47 63 -47 141v39q0 176 102 279.5t278 103.5h60q174 0 277.5 -104.5t103.5 -278.5v-39q0 -78 -47 -141q-70 -92 -70 -95q0 -4 7 -13l24.5 -31.5t34.5 -45.5q51 -74 51 -155v-50q0 -174 -103.5 -276 t-277.5 -102h-60q-176 0 -278 101t-102 277zM342 342q0 -61 43 -104t104 -43h60q61 0 103 42t42 105v59q0 61 -42 103.5t-103 42.5h-60q-63 0 -105 -42t-42 -104v-59zM342 909q0 -61 43 -104t104 -43h60q61 0 103 42t42 105v39q0 63 -42 105.5t-103 42.5h-60q-61 0 -104 -43 t-43 -105v-39z" />
<glyph unicode="9" d="M109 801v147q0 164 104 263.5t276 99.5h62q174 0 278.5 -99.5t104.5 -263.5v-606q0 -164 -104.5 -263t-278.5 -99h-62q-172 0 -266 96q-45 45 -68.5 88t-23.5 61q0 8 12 15l176 88q4 2 11 2q4 0 7 -2t7 -9.5t7 -12.5t9.5 -18.5t10.5 -23.5q35 -70 118 -69h62q61 0 104 43 t43 104v117q0 23 -14 22q-8 0 -57 -20.5t-95 -20.5h-61q-158 0 -260 101.5t-102 259.5zM344 801q0 -63 41 -104.5t104 -41.5h62q63 0 105 42t42 104v147q0 61 -43 104.5t-104 43.5h-62q-61 0 -103 -42t-42 -106v-147z" />
<glyph unicode=":" horiz-adv-x="471" d="M98 117q0 57 40 97t98 40q55 0 96 -41t41 -96.5t-41 -96t-96 -40.5q-57 0 -97.5 41t-40.5 96zM98 645q0 55 40 96t98 41q55 0 96 -41t41 -96q0 -57 -41 -97t-96 -40q-57 0 -97.5 40t-40.5 97z" />
<glyph unicode=";" horiz-adv-x="471" d="M70 -131q0 6 22.5 23.5t46 48t23.5 67.5q0 23 -21 23h-22q-20 0 -21 20v199q0 20 21 20h233q20 0 21 -20v-150q0 -141 -62 -233q-37 -53 -91 -91t-75 -38q-10 0 -16 10l-55 109q-4 8 -4 12zM98 645q0 55 40 96t98 41q55 0 96 -41t41 -96q0 -57 -41 -97t-96 -40 q-57 0 -97.5 40t-40.5 97z" />
<glyph unicode="&#x3c;" d="M121 430v141l10 19l645 377q8 4 10 4q12 0 19 -13l69 -114q4 -8 5 -13q0 -10 -13 -16l-508 -295q-14 -8 -14 -18t14 -19l506 -290q12 -6 13 -17q0 -4 -5 -12l-67 -121q-6 -12 -17 -12q-4 0 -12 4l-645 377z" />
<glyph unicode="=" d="M80 256v133q0 20 20 21h838q20 0 20 -21v-133q0 -20 -20 -20h-838q-20 0 -20 20zM80 606v135q0 20 20 21h838q20 0 20 -21v-135q0 -20 -20 -20h-838q-20 0 -20 20z" />
<glyph unicode="&#x3e;" d="M164 176q0 10 12 17l504 290q14 10 14 18.5t-14 18.5l-504 295q-12 6 -12 16q0 4 4 13l70 114q6 12 16 13q4 0 12 -4l641 -377l11 -19v-141l-11 -18l-641 -377q-8 -4 -12 -4q-10 0 -16 12l-70 121q-4 8 -4 12z" />
<glyph unicode="?" d="M104 1069q0 14 25 56t68 87q98 98 270 99h74q172 0 276.5 -100.5t104.5 -262.5q0 -225 -185 -315q-14 -8 -46 -22.5t-44 -20.5t-33.5 -19.5t-30 -21.5t-19.5 -22.5t-15 -30t-4 -33.5q0 -20 6 -51t6 -39q0 -20 -20 -21h-195q-33 0 -33 140q0 94 44 157.5t141 112.5l41 20 l38 20q10 5 31 18.5t29 20.5t21.5 20t18.5 24.5t9 28t4 34.5q0 63 -42 105.5t-103 42.5h-74q-72 0 -115 -66q-8 -12 -16 -26.5t-12.5 -22.5t-9.5 -14t-9 -6l-12 4l-176 90q-13 6 -13 14zM324 117q0 57 41 97t96 40t96 -40t41 -97q0 -55 -40 -96t-97.5 -41t-97 41t-39.5 96z " />
<glyph unicode="@" horiz-adv-x="1447" d="M168 367v557q0 166 105.5 266t279.5 100h344q174 0 279.5 -101.5t105.5 -264.5v-414q0 -90 -58.5 -145.5t-154.5 -55.5h-25q-80 0 -151 53l-12 3q-86 -55 -170 -56q-117 0 -191 73t-74 189v158q0 115 75 187.5t186 72.5q43 0 116 -22h15q2 23 26 22h105q31 0 30 -28v-441 q0 -49 48 -49h22q20 0 33.5 14.5t13.5 34.5v404q0 92 -59.5 146t-159.5 54h-344q-100 0 -160.5 -55t-60.5 -145v-557q0 -92 59.5 -146.5t161.5 -54.5h526q31 0 31 -31v-104q0 -31 -31 -31h-526q-174 0 -279.5 100.5t-105.5 266.5zM612 584q0 -47 32 -80t79 -33t81 34t34 79 v129q0 45 -34 78.5t-81 33.5t-79 -32.5t-32 -79.5v-129z" />
<glyph unicode="A" horiz-adv-x="921" d="M-16 18v2q2 4 2 7l381 1249q6 14 20 14h148q14 0 20 -14l381 -1249q0 -2 2 -7v-2q0 -18 -23 -18h-206q-18 0 -21 14l-61 215q-2 12 -21 13h-293q-18 0 -20 -13l-62 -215q-2 -14 -20 -14h-205q-22 0 -22 18zM362 475q0 -18 23 -18h150q23 0 22 18v4l-2 4l-68 271 q0 4 -3 18t-8 41t-11 53h-6q-23 -98 -25 -112l-69 -271v-4z" />
<glyph unicode="B" horiz-adv-x="1097" d="M137 20v1250q0 20 21 20h460q176 0 278.5 -102.5t102.5 -278.5v-20q0 -78 -45 -139l-71 -97q0 -4 8 -14t25.5 -32.5t33.5 -45.5q49 -72 49 -153v-31q0 -174 -102 -275.5t-279 -101.5h-460q-21 0 -21 20zM373 236q0 -20 20 -21h225q61 0 104.5 43t43.5 104v39 q0 61 -42 103.5t-106 42.5h-225q-20 0 -20 -21v-290zM373 782q0 -20 20 -20h225q59 0 103.5 43t44.5 104v19q0 59 -44 103t-104 44h-225q-20 0 -20 -20v-273z" />
<glyph unicode="C" horiz-adv-x="991" d="M109 342v606q0 164 104 263.5t276 99.5h101q141 0 231 -68q55 -39 93 -95t38 -79q0 -10 -12 -16l-178 -88q-4 -2 -10 -2q-10 0 -29 34q-53 98 -133 99h-101q-61 0 -104 -43t-43 -105v-606q0 -61 43 -104t104 -43h101q78 0 131 98q20 39 31 39q6 0 10 -2l178 -88 q12 -6 12 -17q0 -51 -98 -151q-92 -94 -264 -94h-101q-172 0 -276 99t-104 263z" />
<glyph unicode="D" horiz-adv-x="1107" d="M137 20v1250q0 20 21 20h460q176 0 278.5 -102.5t102.5 -278.5v-528q0 -176 -102 -278.5t-279 -102.5h-460q-21 0 -21 20zM373 236q0 -20 20 -21h225q61 0 104.5 43t43.5 104v566q0 59 -44 103t-104 44h-225q-20 0 -20 -20v-819z" />
<glyph unicode="E" horiz-adv-x="978" d="M137 20v1250q0 20 21 20h723q20 0 20 -20v-174q0 -20 -20 -21h-488q-20 0 -20 -20v-273q0 -20 20 -20h400q20 0 20 -21v-174q0 -20 -20 -20h-400q-20 0 -20 -21v-290q0 -20 20 -21h488q20 0 20 -20v-175q0 -20 -20 -20h-723q-21 0 -21 20z" />
<glyph unicode="F" horiz-adv-x="929" d="M137 20v1250q0 20 21 20h723q20 0 20 -20v-174q0 -20 -20 -21h-488q-20 0 -20 -20v-273q0 -20 20 -20h400q20 0 20 -21v-174q0 -20 -20 -20h-400q-20 0 -20 -21v-506q0 -20 -21 -20h-194q-21 0 -21 20z" />
<glyph unicode="G" horiz-adv-x="1079" d="M109 342v606q0 164 104 263.5t276 99.5h136q137 0 233 -68q53 -39 91 -95t38 -79q0 -10 -12 -16l-178 -88q-4 -2 -11 -2q-10 0 -28 34q-53 98 -133 99h-136q-61 0 -104 -43t-43 -105v-606q0 -61 43 -104t104 -43h101q61 0 103 42t42 105v96q0 20 -20 21h-193 q-20 0 -20 20v174q0 20 20 21h428q20 0 21 -21v-311q0 -164 -104.5 -263t-276.5 -99h-101q-172 0 -276 99t-104 263z" />
<glyph unicode="H" horiz-adv-x="1167" d="M137 20v1250q0 20 21 20h194q20 0 21 -20v-488q0 -20 20 -20h381q20 0 21 20v488q0 20 20 20h193q20 0 20 -20v-1250q0 -20 -20 -20h-193q-20 0 -20 20v506q0 20 -21 21h-381q-20 0 -20 -21v-506q0 -20 -21 -20h-194q-21 0 -21 20z" />
<glyph unicode="I" horiz-adv-x="509" d="M137 20v1250q0 20 21 20h194q20 0 21 -20v-1250q0 -20 -21 -20h-194q-21 0 -21 20z" />
<glyph unicode="J" horiz-adv-x="862" d="M6 223q0 14 12 19l183 86q8 4 10 4q10 0 29 -39q49 -98 133 -98q61 0 103 43t42 104v928q0 20 21 20h194q20 0 21 -20v-908q0 -154 -113 -272q-100 -111 -268 -110q-68 0 -172 36q-88 49 -141.5 109.5t-53.5 97.5z" />
<glyph unicode="K" horiz-adv-x="1067" d="M137 20v1250q0 20 21 20h194q20 0 21 -20v-455q0 -25 18 -24q10 0 19 12l364 479l17 8h235q23 0 23 -16q0 -8 -7 -17l-397 -491q-4 -8 -4 -10q0 -4 4 -13l440 -712q4 -8 5 -15q0 -16 -23 -16h-240l-16 10l-322 514q-10 12 -16 13q-12 0 -18 -9l-82 -108v-400 q0 -20 -21 -20h-194q-21 0 -21 20z" />
<glyph unicode="L" horiz-adv-x="929" d="M137 20v1250q0 20 21 20h194q20 0 21 -20v-1034q0 -20 20 -21h488q20 0 20 -20v-175q0 -20 -20 -20h-723q-21 0 -21 20z" />
<glyph unicode="M" horiz-adv-x="1304" d="M137 20v1250q0 20 21 20h176q10 -4 18 -12l299 -811l299 811q8 8 19 12h176q20 0 20 -20v-1250q0 -20 -20 -20h-189q-20 0 -20 20l18 799l-231 -631q-12 -12 -18 -12h-105q-12 0 -18 12l-232 631l19 -799q0 -20 -21 -20h-190q-21 0 -21 20z" />
<glyph unicode="N" horiz-adv-x="1126" d="M137 20v1250q0 20 21 20h172l18 -10l418 -831l-8 821q0 20 20 20h189q20 0 20 -20v-1250q0 -20 -20 -20h-170l-19 10l-420 824l11 -814q0 -20 -21 -20h-190q-21 0 -21 20z" />
<glyph unicode="O" horiz-adv-x="1079" d="M109 342v606q0 164 104 263.5t276 99.5h101q172 0 276.5 -99.5t104.5 -263.5v-606q0 -164 -104.5 -263t-276.5 -99h-101q-172 0 -276 99t-104 263zM342 342q0 -61 43 -104t104 -43h101q61 0 103 42t42 105v606q0 63 -42 105.5t-103 42.5h-101q-61 0 -104 -43t-43 -105 v-606z" />
<glyph unicode="P" horiz-adv-x="989" d="M137 20v1250q0 20 21 20h420q174 0 277 -103.5t103 -277.5q0 -160 -105 -261t-275 -101h-185q-20 0 -20 -21v-506q0 -20 -21 -20h-194q-21 0 -21 20zM373 782q0 -20 20 -20h185q61 0 104 43t43 104v19q0 59 -43 103t-104 44h-185q-20 0 -20 -20v-273z" />
<glyph unicode="Q" horiz-adv-x="1079" d="M109 342v606q0 164 104 263.5t276 99.5h101q172 0 276.5 -99.5t104.5 -263.5v-606q0 -109 -50.5 -195t-129.5 -120q-33 -14 -72 -23.5t-55.5 -15.5t-16.5 -23v-121q0 -20 -20 -20h-174q-20 0 -21 20v121q0 14 -19.5 20.5t-58.5 14.5t-69 27q-176 98 -176 315zM342 342 q0 -47 27.5 -86t54.5 -39q10 0 16 16l27 82q6 14 20 15h105q18 0 20 -15l27 -86q6 -16 16 -16q23 0 51.5 40t28.5 89v606q0 63 -42 105.5t-103 42.5h-101q-61 0 -104 -43t-43 -105v-606z" />
<glyph unicode="R" horiz-adv-x="1079" d="M137 20v1250q0 20 21 20h460q176 0 278.5 -102.5t102.5 -278.5v-20q0 -121 -90 -219q-14 -12 -36.5 -29.5t-35 -29t-12.5 -19.5v-2l195 -563q2 -4 2 -11q0 -16 -21 -16h-210q-10 0 -19 14l-180 521l-17 12h-182q-20 0 -20 -21v-506q0 -20 -21 -20h-194q-21 0 -21 20z M373 782q0 -20 20 -20h225q59 0 103.5 43t44.5 104v19q0 59 -44 103t-104 44h-225q-20 0 -20 -20v-273z" />
<glyph unicode="S" horiz-adv-x="901" d="M39 225q0 8 12 15l178 88q4 2 11 2q4 0 7 -2t7 -8.5t6 -11.5t8 -17t11 -23q16 -33 51 -53t69 -20h82q59 0 103.5 43t44.5 104q0 37 -12.5 64.5t-50.5 53t-62.5 39t-93.5 46.5q-182 88 -261 174t-79 229q0 164 104.5 263.5t276.5 99.5h30q139 0 234 -68q53 -39 92 -95 t39 -79q0 -10 -12 -16l-179 -88q-4 -2 -10 -2t-27 30q-31 53 -61.5 78t-75.5 25h-30q-61 0 -104.5 -43t-43.5 -105q0 -18 5 -33.5t11.5 -26.5t21.5 -24.5t26.5 -21.5t35.5 -21l39 -19q14 -7 48 -21.5t51 -22.5q170 -78 245.5 -173.5t75.5 -242.5q0 -164 -104.5 -263 t-276.5 -99h-82q-174 0 -266 96q-94 96 -94 149z" />
<glyph unicode="T" horiz-adv-x="823" d="M31 1096v174q0 20 20 20h721q20 0 21 -20v-174q0 -20 -21 -21h-223q-20 0 -21 -20v-1035q0 -20 -20 -20h-193q-20 0 -20 20v1035q0 20 -21 20h-223q-20 1 -20 21z" />
<glyph unicode="U" horiz-adv-x="1079" d="M109 342v928q0 20 20 20h193q20 0 20 -20v-928q0 -61 43 -104t104 -43h101q61 0 103 42t42 105v928q0 20 21 20h194q20 0 21 -20v-928q0 -164 -104.5 -263t-276.5 -99h-101q-172 0 -276 99t-104 263z" />
<glyph unicode="V" horiz-adv-x="921" d="M-16 1272q0 18 22 18h205q18 0 20 -14l234 -832l223 832q2 14 21 14h206q23 0 23 -18q0 -2 -1 -4t-1 -4l-381 -1250q-2 -14 -20 -14h-148q-14 0 -20 14l-381 1250q0 2 -1 4t-1 4z" />
<glyph unicode="W" horiz-adv-x="1345" d="M4 1270v4q0 16 23 16h209q16 0 20 -16l150 -834l194 840q2 14 21 14h102q18 0 20 -14l195 -840l152 834q4 16 20 16h209q23 0 22 -16l-2 -4v-4l-270 -1250q-4 -16 -20 -16h-150q-18 0 -20 14l-207 811l-205 -811q-2 -14 -21 -14h-149q-16 0 -21 16l-270 1250z" />
<glyph unicode="X" horiz-adv-x="937" d="M2 16q0 2 4 15l307 606v18l-307 605q-4 12 -4 14q0 16 23 16h227q6 0 18 -12l183 -377q6 -14 18 -14t18 14l177 377q2 6 18 12h231q23 0 23 -16q0 -4 -4 -12l-305 -609v-16l305 -608q4 -8 4 -13q0 -16 -23 -16h-233q-12 0 -18 12l-175 371q-6 14 -18 14t-18 -14 l-181 -371l-18 -12h-229q-23 0 -23 16z" />
<glyph unicode="Y" horiz-adv-x="921" d="M-20 1274q0 16 22 16h227l19 -12l194 -401q6 -14 18.5 -14.5t18.5 14.5l195 401l18 12h226q23 0 22 -16q0 -2 -4 -14l-358 -672v-568q0 -20 -21 -20h-195q-20 0 -20 20v568l-358 672q-4 12 -4 14z" />
<glyph unicode="Z" horiz-adv-x="901" d="M20 16q0 4 5 13l456 1018q4 8 4 12q0 16 -22 16h-373q-20 0 -20 21v174q0 20 20 20h727q23 0 23 -16q0 -4 -4 -12l-459 -1018q-4 -8 -4 -13q0 -16 22 -16h416q20 0 20 -20v-175q0 -20 -20 -20h-768q-23 0 -23 16z" />
<glyph unicode="[" horiz-adv-x="745" d="M168 -332v1796q0 20 20 21h369q20 0 21 -21v-174q0 -20 -21 -20h-135q-20 0 -21 -21v-1366q0 -20 21 -20h135q20 0 21 -21v-174q0 -20 -21 -20h-369q-20 0 -20 20z" />
<glyph unicode="\" horiz-adv-x="675" d="M-16 1274q0 16 22 16h129q16 -6 19 -12l534 -1249q4 -8 4 -13q0 -16 -22 -16h-129q-14 2 -19 12l-534 1250q-4 8 -4 12z" />
<glyph unicode="]" horiz-adv-x="745" d="M168 -158q0 20 20 21h134q20 0 20 20v1366q0 20 -20 21h-134q-20 0 -20 20v174q0 20 20 21h369q20 0 21 -21v-1796q0 -20 -21 -20h-369q-20 0 -20 20v174z" />
<glyph unicode="^" horiz-adv-x="1550" d="M59 655v174q0 20 21 21h47q20 0 20 20v58q0 162 114 272.5t288 110.5q70 0 131 -21.5t96 -43t39 -21.5q8 0 42 21.5t88 43t112 21.5q37 0 37 -21v-176q0 -6 -1 -9t-5.5 -6t-8.5 -5t-12 -3t-14 -3.5t-19.5 -4.5t-23.5 -4q-37 -8 -64.5 -46t-27.5 -85v-78q0 -20 20 -20h135 q20 0 21 -21v-174q0 -20 -21 -20h-135q-20 0 -20 -21v-594q0 -20 -21 -20h-195q-20 0 -20 20v594q0 20 -20 21h-259q-20 0 -20 -21v-594q0 -20 -21 -20h-194q-20 0 -21 20v594q0 20 -20 21h-47q-21 0 -21 20zM383 870q0 -20 20 -20h259q20 0 20 20v58q0 45 10 86l-6 18 q-68 63 -158 64q-61 0 -103 -42t-42 -106v-78zM1192 1173.5q0 57.5 40 97.5t97 40q55 0 95 -40t40 -97.5t-40 -97.5t-95 -40q-57 0 -97 40t-40 97.5zM1210 20v898q0 20 21 20h194q20 0 21 -20v-898q0 -20 -21 -20h-194q-21 0 -21 20z" />
<glyph unicode="_" horiz-adv-x="471" d="M-18 -313q0 20 20 20h467q20 0 20 -20v-107q0 -20 -20 -20h-467q-20 0 -20 20v107z" />
<glyph unicode="`" horiz-adv-x="1024" d="M145 1378q0 16 23 17h258l16 -11l197 -301q4 -4 4 -14q0 -16 -20 -16h-150l-14 6l-305 301q-9 8 -9 18z" />
<glyph unicode="a" horiz-adv-x="968" d="M111 721q0 16 25.5 60t72.5 89q90 88 260 88q174 0 278.5 -98t104.5 -262v-578q0 -20 -21 -20h-174q-16 0 -21 19.5t-13 19.5q-4 0 -52.5 -19.5t-91.5 -19.5h-78q-127 0 -207.5 78t-80.5 196v11q0 121 80.5 197.5t207.5 76.5h197q20 0 20 19v4l-2 24q-6 63 -45 100 t-102 37t-113 -61q-10 -14 -21 -32.5t-17.5 -27t-14.5 -8.5q-4 0 -12 4l-168 89q-12 6 -12 14zM346 274q0 -27 15.5 -43t39.5 -16h78q96 0 137 115q0 10 2 32h-217q-23 0 -39 -17t-16 -40v-31z" />
<glyph unicode="b" horiz-adv-x="968" d="M119 20v1250q0 20 20 20h193q20 0 20 -20v-350q0 -23 15 -23q4 0 58 20.5t105 20.5q147 0 249 -103.5t102 -256.5v-216q0 -160 -104.5 -261t-264.5 -101q-55 0 -107.5 20.5t-56.5 20.5q-8 0 -13 -20.5t-22 -20.5h-174q-20 0 -20 20zM352 362q0 -61 42 -104t105.5 -43 t104.5 42t41 105v216q0 61 -41 103t-104.5 42t-105.5 -42t-42 -103v-216z" />
<glyph unicode="c" horiz-adv-x="878" d="M88 342v254q0 164 104.5 263t278.5 99q143 0 234 -67q53 -41 91 -96.5t38 -77.5q0 -10 -13 -17l-178 -88q-4 -2 -10 -2q-10 0 -29 35q-51 98 -133 98q-63 0 -105 -43t-42 -104v-254q0 -61 42 -104t105 -43q78 0 131 98q20 39 31 39q6 0 10 -2l178 -88q12 -6 13 -17 q0 -45 -101 -151q-90 -94 -262 -94q-174 0 -278.5 99t-104.5 263z" />
<glyph unicode="d" horiz-adv-x="968" d="M88 362v216q0 154 101.5 257t248.5 103q53 0 106.5 -20.5t57.5 -20.5q14 0 14 23v350q0 20 21 20h194q20 0 21 -20v-1250q0 -20 -21 -20h-174q-16 0 -21 20.5t-13 20.5q-4 0 -57.5 -20.5t-108.5 -20.5q-160 0 -264.5 101t-104.5 261zM324 362q0 -63 42 -105t105.5 -42 t104 42t40.5 105v216q0 61 -40.5 103t-104 42t-105.5 -42t-42 -103v-216z" />
<glyph unicode="e" horiz-adv-x="940" d="M88 342v254q0 102 57 188q117 174 326 174q98 0 184 -46t140 -128q57 -86 57 -188v-166q0 -20 -21 -20h-487q-20 0 -20 -21v-47q0 -61 42 -104t105 -43q78 0 131 98q20 39 31 39q6 0 10 -2l178 -88q12 -6 13 -17q0 -45 -101 -151q-90 -94 -262 -94q-174 0 -278.5 99 t-104.5 263zM328 625q0 -18 20 -19h244q20 0 20 21q0 43 -44 79.5t-97 36.5q-57 0 -100 -36.5t-43 -81.5z" />
<glyph unicode="f" horiz-adv-x="598" d="M59 655v174q0 20 21 21h47q20 0 20 20v58q0 152 113 270q104 113 268 113q147 0 148 -33v-4l-2 -4l-62 -172q-4 -14 -22 -15q-8 0 -28.5 6.5t-33.5 6.5q-61 0 -103 -43t-42 -105v-78q0 -20 20 -20h134q20 0 20 -21v-174q0 -20 -20 -20h-134q-20 0 -20 -21v-594 q0 -20 -21 -20h-194q-20 0 -21 20v594q0 20 -20 21h-47q-21 0 -21 20z" />
<glyph unicode="g" horiz-adv-x="940" d="M88 -147q0 37 12.5 68.5t24.5 49t39 49.5q35 39 35 46l-11 32q-10 33 -10 66q0 35 14.5 73.5t14.5 41.5q0 8 -6 14l-25 33q-18 25 -26.5 36t-22.5 36.5t-21.5 46t-12.5 51t-5 63.5v19q0 154 106.5 257t262.5 103q53 0 108.5 -20.5t59.5 -20.5q6 0 11 20.5t21 20.5h174 q20 0 21 -20v-359q0 -164 -110.5 -263t-297.5 -99h-30q-14 -14 -15 -33q0 -16 17 -37h229q131 0 213 -78t82 -196v-39q0 -119 -83 -197t-212 -78h-262q-131 0 -213 78t-82 197v39zM324 -147v-39q0 -27 16 -43.5t43 -16.5h262q25 0 42.5 17.5t17.5 42.5v39q0 27 -16.5 43 t-43.5 16h-262q-27 0 -43 -16t-16 -43zM324 559q0 -61 42 -104t105 -43q61 0 103 43t42 104v19q0 61 -40.5 103t-104 42t-105.5 -42t-42 -103v-19z" />
<glyph unicode="h" horiz-adv-x="989" d="M119 20v1250q0 20 20 20h193q20 0 20 -20v-350q0 -23 15 -23q4 0 58 20.5t105 20.5q145 0 248 -102.5t103 -257.5v-558q0 -20 -21 -20h-194q-20 0 -21 20v558q0 61 -41 103t-104.5 42t-105.5 -42t-42 -103v-558q0 -20 -20 -20h-193q-20 0 -20 20z" />
<glyph unicode="i" horiz-adv-x="471" d="M98 1173.5q0 57.5 40 97.5t98 40q55 0 96 -41t41 -96.5t-41 -96.5t-96 -41q-57 0 -97.5 40t-40.5 97.5zM119 20v898q0 20 20 20h193q20 0 20 -20v-898q0 -20 -20 -20h-193q-20 0 -20 20z" />
<glyph unicode="j" horiz-adv-x="471" d="M-57 -287q0 8 2 12.5t9 7.5t14 4t22.5 4t27.5 5q45 10 73 47t28 86v1039q0 20 20 20h193q20 0 20 -20v-1020q0 -90 -41 -170t-110 -127q-123 -82 -236 -82q-23 0 -22 20v174zM98 1173.5q0 57.5 40 97.5t98 40q55 0 96 -41t41 -96.5t-41 -96.5t-96 -41q-57 0 -97.5 40 t-40.5 97.5z" />
<glyph unicode="k" horiz-adv-x="919" d="M119 20v1250q0 20 20 20h193q20 0 20 -20v-561q0 -23 19 -23q8 0 16 8l217 238l14 6h244q23 0 23 -16q0 -10 -8 -19l-283 -289q-8 -12 -8 -14t4 -10l346 -559q4 -8 4 -15q0 -16 -22 -16h-240l-19 10l-235 387q-6 12 -16 13q-8 0 -17 -9l-33 -32l-6 -15v-334 q0 -20 -20 -20h-193q-20 0 -20 20z" />
<glyph unicode="l" horiz-adv-x="471" d="M119 20v1250q0 20 20 20h193q20 0 20 -20v-1250q0 -20 -20 -20h-193q-20 0 -20 20z" />
<glyph unicode="m" horiz-adv-x="1447" d="M119 20v898q0 20 20 20h174q14 0 20.5 -22.5t14.5 -22.5q6 0 60.5 22.5t105.5 22.5q20 0 42 -4t36 -8t33.5 -13.5t29 -14.5t30 -17.5t26.5 -16.5q10 -6 14 -6t14 6q96 74 230 74q158 0 260 -101.5t102 -258.5v-558q0 -20 -20 -20h-195q-20 0 -20 20v558q0 59 -38 102 t-89 43q-49 0 -88 -44t-39 -101v-558q0 -20 -21 -20h-194q-20 0 -21 20v558q0 59 -38 102t-89 43q-47 0 -87 -44t-40 -101v-558q0 -20 -20 -20h-193q-20 0 -20 20z" />
<glyph unicode="n" horiz-adv-x="999" d="M119 20v898q0 20 20 20h174q16 0 22.5 -20.5t12.5 -20.5q4 0 58.5 20.5t109.5 20.5q158 0 261.5 -101.5t103.5 -258.5v-558q0 -20 -21 -20h-194q-20 0 -21 20v558q0 61 -41 103t-104.5 42t-105.5 -42t-42 -103v-558q0 -20 -20 -20h-193q-20 0 -20 20z" />
<glyph unicode="o" horiz-adv-x="940" d="M88 342v254q0 164 104.5 263t278.5 99q172 0 276.5 -99t104.5 -263v-254q0 -164 -104.5 -263t-276.5 -99q-174 0 -278.5 99t-104.5 263zM324 342q0 -61 42 -104t105 -43q61 0 103 43t42 104v254q0 61 -42 104t-103 43q-63 0 -105 -43t-42 -104v-254z" />
<glyph unicode="p" horiz-adv-x="968" d="M119 -440v1358q0 20 20 20h174q16 0 21.5 -20.5t13.5 -20.5q2 0 57.5 20.5t110.5 20.5q158 0 261.5 -100.5t103.5 -259.5v-216q0 -158 -102.5 -260t-260.5 -102q-43 0 -93 20.5t-58 20.5q-14 0 -15 -23v-458q0 -20 -20 -21h-193q-20 1 -20 21zM352 362q0 -61 42 -104 t105.5 -43t104.5 42t41 105v216q0 61 -41 103t-104.5 42t-105.5 -42t-42 -103v-216z" />
<glyph unicode="q" horiz-adv-x="968" d="M88 362v216q0 160 104.5 260t262.5 100q55 0 110.5 -20.5t59.5 -20.5q6 0 11 20.5t21 20.5h174q20 0 21 -20v-1358q0 -20 -21 -21h-194q-20 0 -21 21v458q0 23 -14 23q-8 0 -57 -20.5t-94 -20.5q-162 0 -256 100q-107 112 -107 262zM324 362q0 -63 42 -105t105.5 -42 t104 42t40.5 105v216q0 61 -40.5 103t-104 42t-105.5 -42t-42 -103v-216z" />
<glyph unicode="r" horiz-adv-x="638" d="M119 20v898q0 20 20 20h174q20 0 21 -18v-29q0 -18 18 -21l13 7q80 61 155 61q115 0 115 -37v-199q0 -23 -14 -22q-10 0 -52.5 20.5t-74.5 20.5q-59 0 -100.5 -42t-41.5 -101v-558q0 -20 -20 -20h-193q-20 0 -20 20z" />
<glyph unicode="s" horiz-adv-x="940" d="M82 221q0 8 12 15l168 81q4 2 10.5 2t16.5 -14q27 -45 40 -62.5t41.5 -36t65.5 -18.5h60q55 0 86.5 25t31.5 63q0 25 -12 39.5t-39.5 22.5t-57.5 12t-80 13.5t-93 19.5q-123 31 -181.5 92.5t-58.5 165.5q0 139 96.5 228t247.5 89h60q141 0 235 -69q51 -37 86 -91.5 t35 -76.5q0 -10 -12 -16l-168 -82q-4 -2 -10.5 -2t-16.5 12q-4 6 -19.5 29.5t-20.5 29.5t-19.5 21.5t-24.5 20.5t-27.5 10.5t-37.5 5.5h-60q-113 0 -112 -78q0 -25 12 -39.5t39.5 -23.5t56.5 -14t79 -13.5t93 -20.5q125 -35 184.5 -95t59.5 -161q0 -145 -96.5 -235 t-255.5 -90h-60q-172 0 -266 100q-88 90 -88 141z" />
<glyph unicode="t" horiz-adv-x="657" d="M10 743l4 109l242 256l14 6h101q20 0 20 -20v-136q0 -20 21 -20h135q20 0 20 -20v-175q0 -20 -20 -20h-135q-20 0 -21 -21v-360q0 -47 29 -85t65 -46q10 -2 22.5 -4t20 -4t14.5 -3t11 -3t8 -5.5t5 -6.5t1 -9v-176q0 -20 -43 -20q-68 0 -142.5 30.5t-125.5 79.5 q-98 94 -98 252v360q0 20 -21 21h-106q-21 0 -21 20z" />
<glyph unicode="u" horiz-adv-x="978" d="M98 362v556q0 20 21 20h194q20 0 21 -20v-556q0 -63 41 -105t104.5 -42t105.5 43t42 104v556q0 20 20 20h193q20 0 20 -20v-898q0 -20 -20 -20h-174q-16 0 -21.5 20.5t-13.5 20.5q-4 0 -57.5 -20.5t-108.5 -20.5q-160 0 -263.5 101t-103.5 261z" />
<glyph unicode="v" horiz-adv-x="880" d="M-18 922q0 16 22 16h207q10 -4 18 -12q211 -553 215 -564q37 98 73 203t56.5 165.5t39 112.5t31.5 73.5t26 21.5h209q23 0 22 -16q0 -4 -4 -13l-365 -897q-6 -12 -18 -12h-147q-10 4 -19 12l-362 897q-4 9 -4 13z" />
<glyph unicode="w" horiz-adv-x="1226" d="M4 918v2q0 18 23 18h204q18 0 21 -14l129 -566l123 566q2 14 20 14h181q18 0 20 -14l127 -566l125 566q2 14 20 14h205q23 0 23 -18q0 -2 -1 -4.5t-1 -4.5l-275 -897q-6 -14 -20 -14h-146q-18 0 -20 14l-146 598l-149 -598q-2 -14 -21 -14h-147q-18 0 -20 14l-273 897 q0 3 -2 7z" />
<glyph unicode="x" horiz-adv-x="837" d="M-20 922q0 16 20 16h229l17 -10l155 -250q8 -12 16.5 -12t14.5 12l158 250l16 10h232q23 0 22 -16q0 -8 -6 -17l-281 -426v-18l281 -430q4 -6 4 -15q0 -16 -20 -16h-230l-18 10l-154 248q-10 14 -18 14t-19 -14l-153 -248l-19 -10h-196q-23 0 -23 16q0 2 4 15l248 426 q2 8 2 18v6l-278 426q-4 7 -4 15z" />
<glyph unicode="y" horiz-adv-x="978" d="M98 362v556q0 20 21 20h194q20 0 21 -20v-556q0 -63 41 -105t104.5 -42t105.5 43t42 104v556q0 20 20 20h193q20 0 20 -20v-1018q0 -176 -102.5 -278.5t-278.5 -102.5q-141 0 -233 65q-53 39 -90 95.5t-37 80.5q0 8 12 15l176 88q8 4 10 4q12 0 29 -37q53 -96 133 -96 q61 0 104.5 44t43.5 103v127q0 20 -15 21q-6 0 -49 -14.5t-84 -14.5q-172 0 -276.5 99t-104.5 263z" />
<glyph unicode="z" horiz-adv-x="880" d="M14 16q0 6 4 15l396 659q4 8 4 15q0 16 -23 16h-315q-20 0 -21 20v174q0 20 21 21h727q23 0 22 -16q0 -6 -4 -15l-397 -659q-4 -4 -4 -15q0 -16 22 -16h353q20 0 20 -20v-175q0 -20 -20 -20h-762q-23 0 -23 16z" />
<glyph unicode="{" horiz-adv-x="774" d="M20 477v178q0 8 2.5 12.5t9.5 7.5t14 4t23.5 4t28.5 5q41 10 70 47t29 86v283q0 168 98 266q49 49 126 82t142 33q43 0 43 -21v-176q0 -6 -1 -9t-5 -6t-8 -5t-11.5 -3t-14.5 -3t-19 -4.5t-23 -4.5q-37 -8 -65.5 -45t-28.5 -84v-323q0 -80 -43 -135q-16 -25 -37 -51 l-28 -35q-8 -10 -8.5 -14.5t7 -14.5t26 -32.5t32.5 -45.5q51 -74 51 -154v-309q0 -47 28.5 -85t65.5 -46q10 -2 22.5 -4t19.5 -4t14.5 -3t11.5 -3t8 -5t5 -6.5t1 -9.5v-176q0 -20 -43 -20q-68 0 -143.5 32.5t-124.5 81.5q-98 98 -98 267v284q0 47 -29 84t-70 47 q-12 2 -28.5 5.5t-23.5 4.5t-14 4t-9.5 7t-2.5 12z" />
<glyph unicode="|" horiz-adv-x="1568" d="M59 655v174q0 20 21 21h47q20 0 20 20v58q0 147 113 270q102 113 285 113q133 0 270 -90q8 -6 14 -7q4 0 11 7q100 70 223 69h369q20 0 20 -20v-1250q0 -20 -20 -20h-195q-20 0 -20 20v1035q0 20 -21 20h-133q-61 0 -103 -42t-42 -105v-58q0 -20 20 -20h135q20 0 21 -21 v-174q0 -20 -21 -20h-135q-20 0 -20 -21v-594q0 -20 -21 -20h-195q-20 0 -20 20v594q0 20 -20 21h-259q-20 0 -20 -21v-594q0 -20 -21 -20h-194q-20 0 -21 20v594q0 20 -20 21h-47q-21 0 -21 20zM383 870q0 -20 20 -20h259q20 0 20 20v39q0 53 12 99l-4 18q-63 70 -162 70 q-61 0 -103 -42t-42 -106v-78z" />
<glyph unicode="}" horiz-adv-x="774" d="M168 -156q0 8 2 12.5t9 7.5t14.5 4t22.5 4t28 5q41 10 69.5 47t28.5 86v309q0 80 41 138l78 108q0 4 -4 10.5t-13.5 16.5t-15.5 18q-31 43 -45 63.5t-27.5 56.5t-13.5 71v323q0 49 -27.5 85t-70.5 46q-12 2 -27.5 5.5t-23 4.5t-14.5 4t-9 7t-2 12v176q0 20 41 21 q154 0 261.5 -105.5t107.5 -275.5v-283q0 -47 27.5 -85t64.5 -46q10 -2 23.5 -4t19.5 -4t14 -3t12 -3t8.5 -5t5.5 -6t1 -10v-178q0 -6 -1 -9t-5.5 -6t-8.5 -5t-12 -3t-14 -3t-19.5 -4.5t-23.5 -4.5q-37 -8 -64.5 -46t-27.5 -83v-284q0 -168 -99 -267q-49 -51 -126 -82.5 t-144 -31.5q-41 0 -41 20v176z" />
<glyph unicode="~" horiz-adv-x="1132" d="M59 655v174q0 20 21 21h47q20 0 20 20v58q0 162 114 272.5t288 110.5q70 0 131 -21.5t96 -43t39 -21.5t36 21.5t89 43t123 21.5q147 0 147 -33l-2 -4v-4l-61 -172q-4 -14 -23 -15q-6 0 -26.5 6.5t-34.5 6.5q-61 0 -103 -43t-42 -105v-78q0 -20 20 -20h135q20 0 21 -21 v-174q0 -20 -21 -20h-135q-20 0 -20 -21v-594q0 -20 -21 -20h-195q-20 0 -20 20v594q0 20 -20 21h-259q-20 0 -20 -21v-594q0 -20 -21 -20h-194q-20 0 -21 20v594q0 20 -20 21h-47q-21 0 -21 20zM383 870q0 -20 20 -20h259q20 0 20 20v58q0 45 10 86l-6 18q-68 63 -158 64 q-61 0 -103 -42t-42 -106v-78z" />
<glyph unicode="&#xa1;" horiz-adv-x="569" d="M119 821.5q0 57.5 41 97t96 39.5t95 -39.5t40 -97t-40 -97.5t-95 -40q-57 0 -97 40t-40 97.5zM137 209l45 358q2 18 21 19h102q18 0 21 -19l47 -358v-541q0 -20 -21 -20h-194q-20 0 -21 20v541z" />
<glyph unicode="&#xa2;" d="M119 518v254q0 231 198 324q35 16 78 24t64.5 13.5t21.5 19.5v117q0 20 21 20h106q20 0 21 -20v-115q0 -14 12 -19.5t52 -10.5t75 -15q61 -18 115 -72q98 -100 98 -143q0 -10 -12 -16l-178 -88q-4 -2 -10.5 -2.5t-16.5 12.5q-4 6 -15.5 23.5t-14.5 23.5t-12 19.5 t-14.5 17.5t-13.5 12t-15 11t-15.5 6.5t-18.5 3.5q-16 0 -16 -23v-500q0 -20 12 -20q49 0 74 41q8 14 18 30.5t15.5 25.5t11.5 18.5t11 12.5t9 3q6 0 11 -2l178 -88q12 -6 12 -19q0 -29 -50 -94t-116 -102q-41 -23 -90 -31t-72.5 -13t-23.5 -22v-115q0 -20 -21 -20h-106 q-20 0 -21 20v117q0 16 -21.5 20.5t-64.5 10.5t-78 25q-198 100 -198 325zM354 518q0 -59 34 -101t79 -42q14 0 14 22v496q0 23 -20 22q-41 0 -74 -43t-33 -100v-254z" />
<glyph unicode="&#xa3;" d="M-8 20v175q0 20 20 20h115q129 35 129 147v164q0 20 -20 21h-48q-20 0 -20 20v174q0 20 20 21h48q20 0 20 20v146q0 152 113 270q102 113 282 113q125 0 217 -68q55 -41 93 -96t38 -78q0 -10 -12 -16l-178 -88q-4 -2 -10 -2q-10 0 -29 34q-53 98 -133 99 q-61 0 -104.5 -43t-43.5 -105v-166q0 -20 21 -20h135q20 0 21 -21v-174q0 -20 -21 -20h-135q-20 0 -21 -21v-184q0 -29 -11 -66.5t-11 -46.5q0 -14 20 -14h422q20 0 21 -20v-175q0 -20 -21 -20h-897q-20 0 -20 20z" />
<glyph unicode="&#xa4;" d="M16 432l41 137q6 20 21 21h88q20 0 20 20v82q0 20 -20 21h-129q-27 0 -21 20l41 137q6 20 21 21h88q20 0 20 20v37q0 164 104.5 263.5t276.5 99.5h60q150 0 237 -68q53 -39 89 -95t36 -79q0 -10 -10 -16l-184 -88q-2 -2 -9 -2q-8 0 -26 34q-25 51 -53.5 75t-79.5 24h-60 q-61 0 -104 -43t-43 -105v-37q0 -20 20 -20h400q10 0 16 -6t4 -15l-41 -137q-6 -20 -20 -20h-359q-20 0 -20 -21v-82q0 -20 20 -20h310q10 0 16 -6t4 -15l-41 -137q-6 -20 -20 -20h-269q-20 0 -20 -21v-49q0 -61 43 -104t104 -43h60q53 0 80.5 22.5t52.5 75.5q16 39 26 39 q6 0 9 -2l184 -88q10 -6 10 -17q0 -51 -92 -151q-53 -57 -116.5 -75.5t-153.5 -18.5h-60q-172 0 -276.5 99t-104.5 263v49q0 20 -20 21h-129q-27 0 -21 20z" />
<glyph unicode="&#xa5;" d="M39 1276q0 14 22 14h226l18 -12l195 -401q6 -14 18 -14.5t19 14.5l194 401l19 12h227q23 0 22 -16q0 -2 -4 -14l-280 -525q-4 -6 -4 -16q0 -14 22 -14h215q20 0 21 -21v-156q0 -20 -21 -20h-291q-20 0 -20 -21v-94q0 -20 20 -20h291q20 0 21 -21v-155q0 -20 -21 -21h-291 q-20 0 -20 -20v-136q0 -20 -21 -20h-194q-20 0 -21 20v136q0 20 -20 20h-291q-20 0 -20 21v155q0 20 20 21h291q20 0 20 20v94q0 20 -20 21h-291q-20 0 -20 20v156q0 20 20 21h215q23 0 23 16q0 2 -4 14l-281 525q-4 6 -4 16z" />
<glyph unicode="&#xa6;" horiz-adv-x="1024" d="M410 -350v758h206v-758h-206zM410 674v758h206v-758h-206z" />
<glyph unicode="&#xa7;" d="M109 -240q0 8 12 15l176 88q8 4 10 4q12 0 31 -39q51 -94 131 -94h82q59 0 102 43t43 104q0 20 -3 39t-13 35t-17.5 28.5t-29 28t-31.5 23.5t-40 23.5t-42 21.5l-51 25q-39 19 -53 26q-150 72 -214.5 150.5t-64.5 205.5v41q0 109 56 201l-3 21q-53 86 -53 190 q0 170 103.5 270.5t277.5 100.5h33q141 0 231 -68q55 -39 93 -95t38 -79q0 -10 -12 -16l-178 -88q-4 -2 -10 -2q-10 0 -29 34q-53 98 -133 99h-33q-61 0 -103 -42t-42 -106q0 -25 6 -45t21.5 -37.5t29.5 -31t44 -30t50.5 -25.5t62.5 -28.5t66 -31.5q145 -72 212 -158 t67 -219v-41q0 -96 -55 -192v-21q55 -100 55 -207q0 -164 -104.5 -263t-276.5 -99h-82q-172 0 -266 94t-94 147zM373 487q0 -59 45 -98q72 -57 151.5 -90t112.5 -33q14 0 14 21v55q0 84 -92 145q-18 12 -94 48q-106 47 -119 47q-18 0 -18 -54v-41z" />
<glyph unicode="&#xa8;" horiz-adv-x="1024" d="M211 1208q0 53 37 90t90 37t90 -36.5t37 -90t-37 -90.5t-90 -37q-55 0 -91 36t-36 91zM557 1208q0 53 37 90t90 37t90 -36.5t37 -90t-37 -90.5t-90 -37q-55 0 -91 36t-36 91z" />
<glyph unicode="&#xa9;" horiz-adv-x="1447" d="M168 362v566q0 164 104.5 263t276.5 99h352q172 0 276.5 -99t104.5 -263v-566q0 -164 -104.5 -263t-276.5 -99h-352q-174 0 -277.5 99t-103.5 263zM313 362q0 -96 63.5 -155.5t172.5 -59.5h352q106 0 170 59.5t64 155.5v566q0 96 -64.5 155.5t-169.5 59.5h-352 q-109 0 -172.5 -59.5t-63.5 -155.5v-566zM444 561v193q0 117 76 188.5t203 71.5q109 0 185.5 -60.5t76.5 -105.5q0 -8 -14 -14l-107 -54q-4 -2 -8 -2q-6 0 -16 10q-4 6 -12.5 14.5t-12.5 13.5t-11 12l-11 12q-4 4 -11.5 9t-13.5 8t-13 6t-15.5 4t-16.5 1q-51 0 -84 -32.5 t-33 -81.5v-193q0 -49 33 -82t84 -33q16 0 28.5 3.5t26 14.5t18.5 15t22.5 24.5t21.5 24.5q10 10 16 11q4 0 8 -2l107 -54q12 -6 12 -16q0 -49 -76 -109.5t-184 -60.5q-125 0 -202 72.5t-77 191.5z" />
<glyph unicode="&#xaa;" horiz-adv-x="677" d="M68 821v6q0 90 59 146.5t154 56.5h137l4 6v17q0 37 -25.5 61.5t-68.5 24.5q-53 0 -97 -76q-8 -14 -18 -14q-6 0 -14 4l-119 61q-12 8 -12 21q0 53 74.5 114.5t185.5 61.5q125 0 201.5 -73t76.5 -191v-404q0 -25 -24 -25h-121q-25 0 -25 23l-8 4q-45 -27 -92 -27h-55 q-94 0 -153.5 57.5t-59.5 145.5zM252 821q0 -14 9 -23.5t20 -9.5h55q61 0 86 74v10h-141q-10 0 -19.5 -9t-9.5 -21v-21z" />
<glyph unicode="&#xab;" horiz-adv-x="1175" d="M98 502v145l8 17l443 315q8 6 16 6q16 0 17 -22v-183l-9 -16l-241 -172q-10 -8 -10 -16.5t10 -16.5l241 -174l9 -16v-181q0 -23 -17 -22q-8 0 -16 6l-443 313zM569 502v145l9 17l444 315q10 6 16 6q16 0 17 -22v-183l-8 -16l-242 -172q-10 -8 -10 -16.5t10 -16.5 l242 -174l8 -16v-181q0 -23 -15 -22q-8 0 -18 6l-444 313z" />
<glyph unicode="&#xac;" horiz-adv-x="1705" d="M254 668v196h1198v-502h-199v306h-999z" />
<glyph unicode="&#xad;" horiz-adv-x="569" d="M80 373v192q0 20 20 21h369q20 0 20 -21v-192q0 -20 -20 -21h-369q-20 1 -20 21z" />
<glyph unicode="&#xae;" horiz-adv-x="942" d="M98 901v41q0 158 100.5 253t268.5 95h8q168 0 268.5 -95t100.5 -253v-41q0 -158 -100.5 -253t-268.5 -95h-8q-168 0 -268.5 95t-100.5 253zM160 901q0 -129 84 -208t223 -79h8q139 0 223 79t84 208v41q0 129 -84 208t-223 79h-8q-139 0 -223 -79t-84 -208v-41zM344 758 v344q0 20 21 20h129q59 0 94 -34.5t35 -94.5v-8q0 -33 -31 -67.5t-31 -43.5q0 -4 2 -6l51 -102q4 -8 4 -12q0 -16 -22 -17h-33q-14 2 -18 13l-47 108q-2 6 -19 12h-51q-20 0 -20 -20v-92q0 -20 -21 -21h-22q-21 1 -21 21zM408 948q0 -20 20 -20h66q27 0 45 18.5t18 46.5v6 q0 29 -18.5 47.5t-44.5 18.5h-66q-20 0 -20 -21v-96z" />
<glyph unicode="&#xaf;" horiz-adv-x="1024" d="M262 1139v174q0 20 21 20h467q20 0 20 -20v-174q0 -20 -20 -21h-467q-21 1 -21 21z" />
<glyph unicode="&#xb0;" horiz-adv-x="471" d="M31 1055v59q0 88 56 142.5t148.5 54.5t148.5 -54.5t56 -142.5v-59q0 -86 -56 -140.5t-148 -54.5q-94 0 -149.5 53.5t-55.5 141.5zM176 1055q0 -23 17.5 -40.5t42 -17.5t42 17.5t17.5 40.5v59q0 23 -17.5 41.5t-42 18.5t-42 -18.5t-17.5 -41.5v-59z" />
<glyph unicode="&#xb1;" horiz-adv-x="1705" d="M254 -2v199h1198v-199h-1198zM254 698v199h498v326h202v-326h498v-199h-498v-325h-202v325h-498z" />
<glyph unicode="&#xb2;" horiz-adv-x="686" d="M59 1157q0 29 60 86q70 59 180 60h47q115 0 183.5 -59.5t68.5 -158.5q0 -88 -50 -142t-167 -120q-41 -25 -59.5 -37t-42 -31.5t-31.5 -40t-8 -44.5v-13q0 -12 14 -12h321q12 0 13 -12v-105q0 -12 -13 -12h-477q-14 0 -14 12v142q0 94 56.5 158.5t178.5 129.5 q68 37 96.5 63t28.5 64q0 37 -28.5 63t-69.5 26h-47q-49 0 -76 -39q-6 -8 -13 -20.5t-11 -17.5t-9 -5l-8 4l-114 53q-9 2 -9 8z" />
<glyph unicode="&#xb3;" horiz-adv-x="686" d="M59 651q0 4 9 8l118 54q2 2 7 2q8 0 26 -37q23 -45 80 -45h37q41 0 69.5 25.5t28.5 62.5v43q0 37 -28.5 61.5t-69.5 24.5h-121q-14 0 -14 12v105q0 12 14 12h121q41 0 69.5 25.5t28.5 62.5v18q0 37 -28.5 63t-69.5 26h-37q-49 0 -76 -39q-6 -8 -13 -20.5t-11 -17.5t-9 -5 l-8 4l-114 53q-8 2 -9 8q0 29 60 86q70 59 180 60h37q115 0 183.5 -62.5t68.5 -167.5v-18q0 -45 -31 -86q-47 -53 -47 -55.5t2 -4.5t6 -7t9 -10t12.5 -13.5t13.5 -16.5q35 -47 35 -96v-35q0 -104 -67.5 -165.5t-184.5 -61.5h-37q-115 0 -178 57q-62 59 -62 90z" />
<glyph unicode="&#xb4;" horiz-adv-x="1024" d="M389 1067q0 6 6 16l199 301l16 9h258q23 0 23 -19q0 -8 -8 -16l-305 -301l-15 -6h-151q-23 0 -23 16z" />
<glyph unicode="&#xb5;" horiz-adv-x="1249" d="M-63 -438l268 1530h289l-76 -435q-31 -170 -31 -268q0 -184 170 -184q104 0 158.5 87t89.5 286l90 514h289l-193 -1092h-268l18 117q-80 -150 -215 -150q-131 0 -213 121l-90 -526h-286z" />
<glyph unicode="&#xb6;" horiz-adv-x="1304" d="M109 537v372q0 174 103 277.5t277 103.5h658q20 0 20 -20v-1710q0 -20 -20 -21h-195q-20 0 -20 21v1495q0 20 -21 20h-137q-20 0 -20 -20v-1495q0 -20 -21 -21h-194q-20 0 -21 21v596q0 20 -20 20h-9q-170 0 -275 100.5t-105 260.5z" />
<glyph unicode="&#xb8;" horiz-adv-x="1024" d="M297 -305q0 20 20 20h121q14 0 25.5 11.5t11.5 23.5v17q0 14 -11 25t-26 11h-82q-23 0 -22 17q0 4 4 12l82 180h203l-37 -73q-4 -8 -4 -13q0 -6 6 -12q78 -68 78 -147v-17q0 -92 -63.5 -151.5t-164.5 -59.5h-121q-20 0 -20 21v135z" />
<glyph unicode="&#xb9;" horiz-adv-x="686" d="M111 1071q0 6 4 8l227 207l8 4h74q12 0 12 -12v-621q0 -12 15 -12h127q14 0 14 -12v-105q0 -12 -14 -12h-437q-14 0 -14 12v105q0 12 14 12h127q14 0 15 12v361q0 12 -13 12q-8 0 -12 -4l-39 -39q-8 -4 -10 -4t-10 4l-84 76q-4 4 -4 8z" />
<glyph unicode="&#xba;" horiz-adv-x="657" d="M51 868v179q0 119 77 191.5t202 72.5q123 0 199.5 -74t76.5 -190v-179q0 -119 -75.5 -191.5t-200.5 -72.5q-127 0 -203 71.5t-76 192.5zM238 868q0 -41 26.5 -67.5t65.5 -26.5t65.5 27.5t26.5 66.5v179q0 39 -26.5 65.5t-65.5 26.5t-65.5 -27t-26.5 -65v-179z" />
<glyph unicode="&#xbb;" horiz-adv-x="1175" d="M121 188v181l8 16l240 174q10 6 10 16.5t-10 16.5l-240 172l-8 16v183q0 23 16 22q6 0 17 -6l442 -315l8 -17v-145l-8 -17l-442 -313q-10 -6 -17 -6q-16 -1 -16 22zM594 188v181l8 16l242 174q10 6 10 16.5t-10 16.5l-242 172l-8 16v183q0 23 16 22q8 0 17 -6l442 -315 l8 -17v-145l-8 -17l-442 -313q-8 -6 -17 -6q-16 -1 -16 22z" />
<glyph unicode="&#xbc;" horiz-adv-x="1957" d="M106 1085q0 2 7 9l215 192l8 4h70q14 0 14 -12v-580q0 -10 12 -10h121q12 0 12 -12v-96q0 -12 -12 -13h-416q-14 0 -14 13v96q0 12 14 12h121q12 0 12 10v336q0 14 -10 15q-6 0 -12 -7l-37 -34q-4 -4 -10 -4q-4 0 -8 4l-80 69q-7 6 -7 8zM629 16q0 4 4 13l534 1249 q4 6 19 12h110q23 0 23 -16q0 -4 -4 -12l-535 -1250q-4 -10 -18 -12h-111q-22 0 -22 16zM1331 170v96l338 453l10 4h119q12 0 12 -12v-420q0 -12 13 -12h84q14 0 14 -13v-96q0 -12 -14 -12h-84q-12 0 -13 -11v-135q0 -12 -12 -12h-123q-12 0 -12 12v135q0 10 -14 11h-303 q-15 0 -15 12zM1503 289q0 -10 13 -10h133q14 0 14 12v176q0 14 -12 14q-6 0 -13 -6l-133 -178q-2 -4 -2 -8z" />
<glyph unicode="&#xbd;" horiz-adv-x="1957" d="M106 1085q0 2 7 9l215 192l8 4h70q14 0 14 -12v-580q0 -10 12 -10h121q12 0 12 -12v-96q0 -12 -12 -13h-416q-14 0 -14 13v96q0 12 14 12h121q12 0 12 10v336q0 14 -10 15q-6 0 -12 -7l-37 -34q-4 -4 -10 -4q-4 0 -8 4l-80 69q-7 6 -7 8zM629 16q0 4 4 13l534 1249 q4 6 19 12h110q23 0 23 -16q0 -4 -4 -12l-535 -1250q-4 -10 -18 -12h-111q-22 0 -22 16zM1360 598q0 29 59 82q63 53 170 53h45q111 0 176.5 -55t65.5 -148q0 -82 -48 -132t-159 -111q-74 -41 -104.5 -70t-30.5 -74v-12q0 -10 12 -10h307q12 0 13 -12v-97q0 -12 -13 -12 h-454q-14 0 -15 12v131q0 86 54.5 147.5t171.5 123.5q63 33 91 57.5t28 59t-28 59t-67 24.5h-45q-43 0 -73 -36q-6 -8 -12.5 -19.5t-9.5 -15.5t-7 -4t-8 2l-111 49q-8 6 -8 8z" />
<glyph unicode="&#xbe;" horiz-adv-x="1957" d="M57 1165q0 29 60 82q63 53 170 53h35q111 0 176 -57t65 -156v-16q0 -47 -31 -80q-43 -49 -43 -53q0 -2 4.5 -7t15.5 -17.5t21 -24.5q33 -39 33 -88v-33q0 -98 -64.5 -155.5t-176.5 -57.5h-35q-109 0 -170 55q-57 51 -58 84q0 2 9 8l110 50h8q6 0 25 -35q25 -41 76 -41h35 q39 0 66.5 24.5t27.5 59.5v39q0 35 -28 57.5t-66 22.5h-115q-14 0 -14 12v98q0 10 14 10h115q39 0 66.5 25t27.5 57v17q0 35 -28 59.5t-66 24.5h-35q-43 0 -74 -37q-6 -8 -12 -19.5t-9.5 -15.5t-7.5 -4t-8 2l-110 49q-9 6 -9 8zM629 16q0 4 4 13l534 1249q4 6 19 12h110 q23 0 23 -16q0 -4 -4 -12l-535 -1250q-4 -10 -18 -12h-111q-22 0 -22 16zM1331 170v96l338 453l10 4h119q12 0 12 -12v-420q0 -12 13 -12h84q14 0 14 -13v-96q0 -12 -14 -12h-84q-12 0 -13 -11v-135q0 -12 -12 -12h-123q-12 0 -12 12v135q0 10 -14 11h-303q-15 0 -15 12z M1503 289q0 -10 13 -10h133q14 0 14 12v176q0 14 -12 14q-6 0 -13 -6l-133 -178q-2 -4 -2 -8z" />
<glyph unicode="&#xbf;" d="M117 -10q0 123 46 196.5t159 132.5q14 8 60 30t61.5 32t33 35.5t17.5 58.5q0 16 -7.5 47t-7.5 45q0 18 21 19h196q33 0 33 -137q0 -172 -168 -259q-139 -70 -168 -100q-43 -41 -43 -100q0 -63 42 -104.5t106 -41.5h73q74 0 131 95q23 39 33 38q4 0 13 -4l178 -90 q12 -6 12 -14q0 -47 -100 -145q-94 -94 -267 -95h-73q-174 0 -277.5 98.5t-103.5 262.5zM440 821.5q0 57.5 41 97t96.5 39.5t96.5 -40.5t41 -96t-40 -96.5t-97.5 -41t-97.5 40t-40 97.5z" />
<glyph unicode="&#xc0;" horiz-adv-x="921" d="M-20 18v2q2 4 2 7l380 1249q6 14 21 14h147q14 0 21 -14l381 -1249q0 -2 2 -7v-2q0 -18 -23 -18h-206q-18 0 -21 14l-61 215q-2 12 -21 13h-293q-18 0 -20 -13l-62 -215q-2 -14 -20 -14h-205q-22 0 -22 18zM92 1731q0 16 23 16h258l16 -10l197 -301q4 -4 4 -15 q0 -16 -21 -16h-149l-14 6l-306 301q-8 9 -8 19zM358 475q0 -18 23 -18h149q23 0 23 18v4l-2 4l-68 271q0 4 -3 18t-8 41t-11 53h-6q-23 -98 -25 -112l-70 -271v-4z" />
<glyph unicode="&#xc1;" horiz-adv-x="921" d="M-20 18v2q2 4 2 7l380 1249q6 14 21 14h147q14 0 21 -14l381 -1249q0 -2 2 -7v-2q0 -18 -23 -18h-206q-18 0 -21 14l-61 215q-2 12 -21 13h-293q-18 0 -20 -13l-62 -215q-2 -14 -20 -14h-205q-22 0 -22 18zM336 1419q0 6 6 17l199 301l16 8h258q23 0 23 -19q0 -8 -9 -16 l-305 -301l-14 -6h-152q-22 0 -22 16zM358 475q0 -18 23 -18h149q23 0 23 18v4l-2 4l-68 271q0 4 -3 18t-8 41t-11 53h-6q-23 -98 -25 -112l-70 -271v-4z" />
<glyph unicode="&#xc2;" horiz-adv-x="921" d="M-20 18v2q2 4 2 7l380 1249q6 14 21 14h147q14 0 21 -14l381 -1249q0 -2 2 -7v-2q0 -18 -23 -18h-206q-18 0 -21 14l-61 215q-2 12 -21 13h-293q-18 0 -20 -13l-62 -215q-2 -14 -20 -14h-205q-22 0 -22 18zM174 1419q0 6 6 17l213 301l17 8h100l16 -8l215 -301 q6 -10 7 -17q0 -16 -23 -16h-166l-16 10l-68 105q-6 12 -14 12q-6 0 -17 -12l-65 -105l-17 -10h-165q-23 0 -23 16zM358 475q0 -18 23 -18h149q23 0 23 18v4l-2 4l-68 271q0 4 -3 18t-8 41t-11 53h-6q-23 -98 -25 -112l-70 -271v-4z" />
<glyph unicode="&#xc3;" horiz-adv-x="921" d="M-20 18v2q2 4 2 7l380 1249q6 14 21 14h147q14 0 21 -14l381 -1249q0 -2 2 -7v-2q0 -18 -23 -18h-206q-18 0 -21 14l-61 215q-2 12 -21 13h-293q-18 0 -20 -13l-62 -215q-2 -14 -20 -14h-205q-22 0 -22 18zM135 1534q0 23 51 88q72 90 158 90q63 0 139 -53l35 -25 q29 -23 57 -22q27 0 48.5 20.5t35 41t21.5 20.5t14 -6l82 -66q8 -6 8 -16q0 -6 -2 -11q-90 -172 -207 -172q-63 0 -143 62l-37 20q-23 20 -51 21q-33 0 -63.5 -37t-36.5 -37q-4 0 -13 4l-86 64q-10 6 -10 14zM358 475q0 -18 23 -18h149q23 0 23 18v4l-2 4l-68 271q0 4 -3 18 t-8 41t-11 53h-6q-23 -98 -25 -112l-70 -271v-4z" />
<glyph unicode="&#xc4;" horiz-adv-x="921" d="M-20 18v2q2 4 2 7l380 1249q6 14 21 14h147q14 0 21 -14l381 -1249q0 -2 2 -7v-2q0 -18 -23 -18h-206q-18 0 -21 14l-61 215q-2 12 -21 13h-293q-18 0 -20 -13l-62 -215q-2 -14 -20 -14h-205q-22 0 -22 18zM158 1561q0 53 36.5 90t90 37t90.5 -37t37 -90.5t-37 -90 t-90 -36.5q-55 0 -91 36t-36 91zM358 475q0 -18 23 -18h149q23 0 23 18v4l-2 4l-68 271q0 4 -3 18t-8 41t-11 53h-6q-23 -98 -25 -112l-70 -271v-4zM504 1561q0 53 37 90t90 37t90 -37t37 -90.5t-37 -90t-90 -36.5q-55 0 -91 36t-36 91z" />
<glyph unicode="&#xc5;" horiz-adv-x="921" d="M-16 18v2q2 4 2 7l381 1249q6 14 20 14h148q14 0 20 -14l381 -1249q0 -2 2 -7v-2q0 -18 -23 -18h-206q-18 0 -21 14l-61 215q-2 12 -21 13h-293q-18 0 -20 -13l-62 -215q-2 -14 -20 -14h-205q-22 0 -22 18zM258 1583v59q0 88 55.5 141.5t149.5 53.5t149.5 -53t55.5 -142 v-59q0 -88 -55.5 -141t-149.5 -53t-149.5 53t-55.5 141zM362 475q0 -18 23 -18h150q23 0 22 18v4l-2 4l-68 271q0 4 -3 18t-8 41t-11 53h-6q-23 -98 -25 -112l-69 -271v-4zM403 1583q0 -23 17.5 -40t42 -17t42 17.5t17.5 39.5v59q0 23 -17.5 41.5t-42 18.5t-42 -18.5 t-17.5 -41.5v-59z" />
<glyph unicode="&#xc6;" horiz-adv-x="1404" d="M-147 16q0 2 4 15l737 1249l18 10h695q20 0 20 -20v-174q0 -20 -20 -21h-488q-20 0 -20 -20v-273q0 -20 20 -20h400q20 0 20 -21v-174q0 -20 -20 -20h-400q-20 0 -20 -21v-290q0 -20 20 -21h488q20 0 20 -20v-175q0 -20 -20 -20h-723q-20 0 -21 20v242q0 20 -20 21h-273 l-20 -9l-148 -264l-18 -10h-209q-22 0 -22 16zM395 514q0 -16 23 -16h125q20 0 20 20v82q0 117 12 252l-8 2q-39 -90 -47 -104l-121 -222q-4 -12 -4 -14z" />
<glyph unicode="&#xc7;" horiz-adv-x="991" d="M109 342v606q0 164 104 263.5t276 99.5h101q141 0 231 -68q55 -39 93 -95t38 -79q0 -10 -12 -16l-178 -88q-4 -2 -10 -2q-10 0 -29 34q-53 98 -133 99h-101q-61 0 -104 -43t-43 -105v-606q0 -61 43 -104t104 -43h101q78 0 131 98q20 39 31 39q6 0 10 -2l178 -88 q12 -6 12 -17q0 -39 -90 -141q-76 -84 -215 -102l-20 -43q-4 -8 -4 -13q0 -6 6 -12q78 -68 78 -147v-17q0 -92 -63.5 -151.5t-164.5 -59.5h-121q-20 0 -20 21v135q0 20 20 20h121q14 0 25.5 11.5t11.5 23.5v17q0 14 -11 25t-26 11h-82q-23 0 -22 17q0 4 4 12l67 150 q-160 16 -248.5 111t-88.5 249z" />
<glyph unicode="&#xc8;" horiz-adv-x="978" d="M133 20v1250q0 20 21 20h723q20 0 20 -20v-174q0 -20 -20 -21h-488q-20 0 -20 -20v-273q0 -20 20 -20h399q20 0 21 -21v-174q0 -20 -21 -20h-399q-20 0 -20 -21v-290q0 -20 20 -21h488q20 0 20 -20v-175q0 -20 -20 -20h-723q-21 0 -21 20zM154 1731q0 16 22 16h258 l17 -10l196 -301q4 -4 4 -15q0 -16 -20 -16h-150l-14 6l-305 301q-8 9 -8 19z" />
<glyph unicode="&#xc9;" horiz-adv-x="978" d="M133 20v1250q0 20 21 20h723q20 0 20 -20v-174q0 -20 -20 -21h-488q-20 0 -20 -20v-273q0 -20 20 -20h399q20 0 21 -21v-174q0 -20 -21 -20h-399q-20 0 -20 -21v-290q0 -20 20 -21h488q20 0 20 -20v-175q0 -20 -20 -20h-723q-21 0 -21 20zM397 1419q0 6 6 17l199 301 l16 8h259q23 0 22 -19q0 -8 -8 -16l-305 -301l-15 -6h-151q-23 0 -23 16z" />
<glyph unicode="&#xca;" horiz-adv-x="978" d="M133 20v1250q0 20 21 20h723q20 0 20 -20v-174q0 -20 -20 -21h-488q-20 0 -20 -20v-273q0 -20 20 -20h399q20 0 21 -21v-174q0 -20 -21 -20h-399q-20 0 -20 -21v-290q0 -20 20 -21h488q20 0 20 -20v-175q0 -20 -20 -20h-723q-21 0 -21 20zM236 1419q0 6 6 17l213 301 l16 8h100l17 -8l215 -301q6 -10 6 -17q0 -16 -23 -16h-165l-17 10l-67 105q-6 12 -15 12q-6 0 -16 -12l-66 -105l-16 -10h-166q-22 0 -22 16z" />
<glyph unicode="&#xcb;" horiz-adv-x="978" d="M133 20v1250q0 20 21 20h723q20 0 20 -20v-174q0 -20 -20 -21h-488q-20 0 -20 -20v-273q0 -20 20 -20h399q20 0 21 -21v-174q0 -20 -21 -20h-399q-20 0 -20 -21v-290q0 -20 20 -21h488q20 0 20 -20v-175q0 -20 -20 -20h-723q-21 0 -21 20zM219 1561q0 53 37 90t90 37 t90 -37t37 -90.5t-37 -90t-90 -36.5q-55 0 -91 36t-36 91zM565 1561q0 53 37 90t90 37t90 -37t37 -90.5t-37 -90t-90 -36.5q-55 0 -91 36t-36 91z" />
<glyph unicode="&#xcc;" horiz-adv-x="509" d="M-115 1731q0 16 23 16h258l16 -10l197 -301q4 -4 4 -15q0 -16 -21 -16h-149l-14 6l-305 301q-9 9 -9 19zM133 20v1250q0 20 21 20h194q20 0 21 -20v-1250q0 -20 -21 -20h-194q-21 0 -21 20z" />
<glyph unicode="&#xcd;" horiz-adv-x="509" d="M129 1419q0 6 6 17l199 301l16 8h258q23 0 23 -19q0 -8 -8 -16l-306 -301l-14 -6h-151q-23 0 -23 16zM133 20v1250q0 20 21 20h194q20 0 21 -20v-1250q0 -20 -21 -20h-194q-21 0 -21 20z" />
<glyph unicode="&#xce;" horiz-adv-x="509" d="M-33 1419q0 6 6 17l213 301l17 8h100l16 -8l216 -301q6 -10 6 -17q0 -16 -23 -16h-166l-16 10l-68 105q-6 12 -14 12t-16 -12l-66 -105l-16 -10h-166q-23 0 -23 16zM133 20v1250q0 20 21 20h194q20 0 21 -20v-1250q0 -20 -21 -20h-194q-21 0 -21 20z" />
<glyph unicode="&#xcf;" horiz-adv-x="509" d="M-49 1561q0 53 37 90t90 37t90 -37t37 -90.5t-37 -90t-90 -36.5q-55 0 -91 36t-36 91zM133 20v1250q0 20 21 20h194q20 0 21 -20v-1250q0 -20 -21 -20h-194q-21 0 -21 20zM297 1561q0 53 37 90t90 37t90 -37t37 -90.5t-37 -90t-90 -36.5q-55 0 -91 36t-36 91z" />
<glyph unicode="&#xd0;" horiz-adv-x="1067" d="M37 549v192q0 20 20 21h60q20 0 20 20v488q0 20 21 20h420q176 0 278 -102.5t102 -278.5v-528q0 -176 -102 -278.5t-278 -102.5h-420q-20 0 -21 20v488q0 20 -20 20h-60q-20 1 -20 21zM373 236q0 -20 20 -21h185q61 0 104 42t43 105v566q0 59 -43 103t-104 44h-185 q-20 0 -20 -20v-273q0 -20 20 -20h164q20 0 21 -21v-192q0 -20 -21 -21h-164q-20 0 -20 -20v-272z" />
<glyph unicode="&#xd1;" horiz-adv-x="1126" d="M133 20v1250q0 20 21 20h172l18 -10l418 -831l-8 821q0 20 20 20h189q20 0 20 -20v-1250q0 -20 -20 -20h-170l-19 10l-420 824l11 -814q0 -20 -21 -20h-190q-21 0 -21 20zM238 1534q0 23 51 88q72 90 157 90q63 0 140 -53l35 -25q29 -23 57 -22q27 0 48.5 20.5t34.5 41 t21.5 20.5t14.5 -6l82 -66q8 -6 8 -16q0 -6 -2 -11q-90 -172 -207 -172q-63 0 -143 62l-37 20q-23 20 -52 21q-33 0 -63.5 -37t-36.5 -37q-4 0 -12 4l-86 64q-10 6 -10 14z" />
<glyph unicode="&#xd2;" horiz-adv-x="1079" d="M104 342v606q0 164 104.5 263.5t276.5 99.5h101q172 0 276.5 -99.5t104.5 -263.5v-606q0 -164 -104.5 -263t-276.5 -99h-101q-172 0 -276.5 99t-104.5 263zM170 1731q0 16 23 16h258l16 -10l197 -301q4 -4 4 -15q0 -16 -21 -16h-149l-15 6l-305 301q-8 9 -8 19zM338 342 q0 -61 43 -104t104 -43h101q61 0 103 42t42 105v606q0 63 -42 105.5t-103 42.5h-101q-61 0 -104 -43t-43 -105v-606z" />
<glyph unicode="&#xd3;" horiz-adv-x="1079" d="M104 342v606q0 164 104.5 263.5t276.5 99.5h101q172 0 276.5 -99.5t104.5 -263.5v-606q0 -164 -104.5 -263t-276.5 -99h-101q-172 0 -276.5 99t-104.5 263zM338 342q0 -61 43 -104t104 -43h101q61 0 103 42t42 105v606q0 63 -42 105.5t-103 42.5h-101q-61 0 -104 -43 t-43 -105v-606zM414 1419q0 6 6 17l198 301l17 8h258q23 0 22 -19q0 -8 -8 -16l-305 -301l-14 -6h-152q-22 0 -22 16z" />
<glyph unicode="&#xd4;" horiz-adv-x="1079" d="M104 342v606q0 164 104.5 263.5t276.5 99.5h101q172 0 276.5 -99.5t104.5 -263.5v-606q0 -164 -104.5 -263t-276.5 -99h-101q-172 0 -276.5 99t-104.5 263zM252 1419q0 6 6 17l213 301l16 8h101l16 -8l215 -301q6 -10 6 -17q0 -16 -22 -16h-166l-16 10l-68 105 q-6 12 -14 12q-6 0 -17 -12l-65 -105l-17 -10h-166q-22 0 -22 16zM338 342q0 -61 43 -104t104 -43h101q61 0 103 42t42 105v606q0 63 -42 105.5t-103 42.5h-101q-61 0 -104 -43t-43 -105v-606z" />
<glyph unicode="&#xd5;" horiz-adv-x="1079" d="M104 342v606q0 164 104.5 263.5t276.5 99.5h101q172 0 276.5 -99.5t104.5 -263.5v-606q0 -164 -104.5 -263t-276.5 -99h-101q-172 0 -276.5 99t-104.5 263zM213 1534q0 23 51 88q72 90 158 90q63 0 139 -53l35 -25q29 -23 57 -22q27 0 48.5 20.5t35 41t21.5 20.5t14 -6 l82 -66q8 -6 8 -16q0 -6 -2 -11q-90 -172 -207 -172q-63 0 -143 62l-37 20q-23 20 -51 21q-33 0 -63.5 -37t-36.5 -37q-4 0 -13 4l-86 64q-10 6 -10 14zM338 342q0 -61 43 -104t104 -43h101q61 0 103 42t42 105v606q0 63 -42 105.5t-103 42.5h-101q-61 0 -104 -43t-43 -105 v-606z" />
<glyph unicode="&#xd6;" horiz-adv-x="1079" d="M104 342v606q0 164 104.5 263.5t276.5 99.5h101q172 0 276.5 -99.5t104.5 -263.5v-606q0 -164 -104.5 -263t-276.5 -99h-101q-172 0 -276.5 99t-104.5 263zM236 1561q0 53 36.5 90t90 37t90 -37t36.5 -90.5t-36.5 -90t-90.5 -36.5q-55 0 -90.5 36t-35.5 91zM338 342 q0 -61 43 -104t104 -43h101q61 0 103 42t42 105v606q0 63 -42 105.5t-103 42.5h-101q-61 0 -104 -43t-43 -105v-606zM582 1561q0 53 36.5 90t90 37t90.5 -37t37 -90.5t-37 -90t-90 -36.5q-55 0 -91 36t-36 91z" />
<glyph unicode="&#xd7;" horiz-adv-x="1705" d="M276 160l451 450l-451 453l140 139l450 -450l451 450l141 -139l-450 -453l450 -450l-141 -140l-451 451l-450 -451z" />
<glyph unicode="&#xd8;" horiz-adv-x="1079" d="M109 342v606q0 164 104 263.5t276 99.5h101q172 0 276.5 -99.5t104.5 -263.5v-606q0 -164 -104.5 -263t-276.5 -99h-101q-172 0 -276 99t-104 263zM342 508q0 -25 18 -25q14 0 21 17l281 557l2 4v4q0 31 -74 31h-101q-61 0 -104 -43t-43 -105v-440zM406 236 q0 -16 24.5 -28.5t58.5 -12.5h101q61 0 103 42t42 105v506q0 12 -12 12t-21 -20l-292 -588q-4 -12 -4 -16z" />
<glyph unicode="&#xd9;" horiz-adv-x="1079" d="M104 342v928q0 20 21 20h192q20 0 21 -20v-928q0 -61 43 -104t104 -43h101q61 0 103 42t42 105v928q0 20 21 20h194q20 0 21 -20v-928q0 -164 -104.5 -263t-276.5 -99h-101q-172 0 -276.5 99t-104.5 263zM170 1731q0 16 23 16h258l16 -10l197 -301q4 -4 4 -15 q0 -16 -21 -16h-149l-15 6l-305 301q-8 9 -8 19z" />
<glyph unicode="&#xda;" horiz-adv-x="1079" d="M104 342v928q0 20 21 20h192q20 0 21 -20v-928q0 -61 43 -104t104 -43h101q61 0 103 42t42 105v928q0 20 21 20h194q20 0 21 -20v-928q0 -164 -104.5 -263t-276.5 -99h-101q-172 0 -276.5 99t-104.5 263zM414 1419q0 6 6 17l198 301l17 8h258q23 0 22 -19q0 -8 -8 -16 l-305 -301l-14 -6h-152q-22 0 -22 16z" />
<glyph unicode="&#xdb;" horiz-adv-x="1079" d="M104 342v928q0 20 21 20h192q20 0 21 -20v-928q0 -61 43 -104t104 -43h101q61 0 103 42t42 105v928q0 20 21 20h194q20 0 21 -20v-928q0 -164 -104.5 -263t-276.5 -99h-101q-172 0 -276.5 99t-104.5 263zM252 1419q0 6 6 17l213 301l16 8h101l16 -8l215 -301q6 -10 6 -17 q0 -16 -22 -16h-166l-16 10l-68 105q-6 12 -14 12q-6 0 -17 -12l-65 -105l-17 -10h-166q-22 0 -22 16z" />
<glyph unicode="&#xdc;" horiz-adv-x="1079" d="M104 342v928q0 20 21 20h192q20 0 21 -20v-928q0 -61 43 -104t104 -43h101q61 0 103 42t42 105v928q0 20 21 20h194q20 0 21 -20v-928q0 -164 -104.5 -263t-276.5 -99h-101q-172 0 -276.5 99t-104.5 263zM236 1561q0 53 36.5 90t90 37t90 -37t36.5 -90.5t-36.5 -90 t-90.5 -36.5q-55 0 -90.5 36t-35.5 91zM582 1561q0 53 36.5 90t90 37t90.5 -37t37 -90.5t-37 -90t-90 -36.5q-55 0 -91 36t-36 91z" />
<glyph unicode="&#xdd;" horiz-adv-x="921" d="M-25 1274q0 16 23 16h227l19 -12l194 -401q6 -14 18.5 -14.5t18.5 14.5l195 401l18 12h225q23 0 23 -16q0 -2 -4 -14l-359 -672v-568q0 -20 -20 -20h-195q-20 0 -20 20v568l-358 672q-5 12 -5 14zM336 1419q0 6 6 17l199 301l16 8h258q23 0 23 -19q0 -8 -9 -16l-305 -301 l-14 -6h-152q-22 0 -22 16z" />
<glyph unicode="&#xde;" horiz-adv-x="989" d="M137 20v1250q0 20 21 20h194q20 0 21 -20v-135q0 -20 20 -21h185q174 0 277 -103.5t103 -277.5q0 -160 -105 -261t-275 -101h-185q-20 0 -20 -21v-330q0 -20 -21 -20h-194q-21 0 -21 20zM373 608q0 -20 20 -20h185q61 0 104 43t43 104v19q0 59 -43 103t-104 44h-185 q-20 0 -20 -20v-273z" />
<glyph unicode="&#xdf;" horiz-adv-x="1005" d="M59 655v174q0 20 21 21h47q20 0 20 20v58q0 152 113 270q102 113 281 113q162 0 265 -105.5t103 -277.5v-39q0 -78 -47 -141q-70 -92 -69 -95q0 -4 7 -13l24.5 -31.5t33.5 -45.5q51 -74 51 -155v-50q0 -168 -107.5 -273t-260.5 -105q-43 0 -43 20v176q0 8 2 12.5t9 7.5 t14 4t23.5 4t28.5 5q41 10 70 47t29 86v59q0 47 -29 84t-70 47q-12 2 -28.5 5.5t-23.5 4.5t-14 4t-9 7t-2 12v178q0 8 2 12.5t9 7.5t14 4t22.5 4t27.5 5q43 10 72 47t29 86v39q0 61 -42 104.5t-104 43.5q-63 0 -105 -42t-42 -106v-928q0 -20 -21 -20h-192q-20 0 -21 20v594 q0 20 -20 21h-47q-21 0 -21 20z" />
<glyph unicode="&#xe0;" horiz-adv-x="968" d="M106 721q0 16 26 60t73 89q90 88 260 88q174 0 278.5 -98t104.5 -262v-578q0 -20 -21 -20h-174q-16 0 -21 19.5t-14 19.5q-4 0 -52 -19.5t-91 -19.5h-78q-127 0 -207.5 78t-80.5 196v11q0 121 80.5 197.5t207.5 76.5h197q20 0 20 19v4l-2 24q-6 63 -45 100t-102.5 37 t-112.5 -61q-10 -14 -21.5 -32.5t-17.5 -27t-14 -8.5q-4 0 -12 4l-168 89q-13 6 -13 14zM113 1378q0 16 22 17h258l17 -11l196 -301q4 -4 4 -14q0 -16 -20 -16h-150l-14 6l-305 301q-8 8 -8 18zM342 274q0 -27 15.5 -43t39.5 -16h78q96 0 137 115q0 10 2 32h-217 q-23 0 -39 -17t-16 -40v-31z" />
<glyph unicode="&#xe1;" horiz-adv-x="968" d="M106 721q0 16 26 60t73 89q90 88 260 88q174 0 278.5 -98t104.5 -262v-578q0 -20 -21 -20h-174q-16 0 -21 19.5t-14 19.5q-4 0 -52 -19.5t-91 -19.5h-78q-127 0 -207.5 78t-80.5 196v11q0 121 80.5 197.5t207.5 76.5h197q20 0 20 19v4l-2 24q-6 63 -45 100t-102.5 37 t-112.5 -61q-10 -14 -21.5 -32.5t-17.5 -27t-14 -8.5q-4 0 -12 4l-168 89q-13 6 -13 14zM342 274q0 -27 15.5 -43t39.5 -16h78q96 0 137 115q0 10 2 32h-217q-23 0 -39 -17t-16 -40v-31zM356 1067q0 6 6 16l199 301l17 9h258q23 0 22 -19q0 -8 -8 -16l-305 -301l-15 -6h-151 q-23 0 -23 16z" />
<glyph unicode="&#xe2;" horiz-adv-x="968" d="M106 721q0 16 26 60t73 89q90 88 260 88q174 0 278.5 -98t104.5 -262v-578q0 -20 -21 -20h-174q-16 0 -21 19.5t-14 19.5q-4 0 -52 -19.5t-91 -19.5h-78q-127 0 -207.5 78t-80.5 196v11q0 121 80.5 197.5t207.5 76.5h197q20 0 20 19v4l-2 24q-6 63 -45 100t-102.5 37 t-112.5 -61q-10 -14 -21.5 -32.5t-17.5 -27t-14 -8.5q-4 0 -12 4l-168 89q-13 6 -13 14zM195 1067q0 6 6 16l213 301l16 9h100l17 -9l215 -301q6 -10 6 -16q0 -16 -23 -16h-165l-17 10l-67 104q-6 12 -15 13q-6 0 -16 -13l-66 -104l-16 -10h-166q-22 0 -22 16zM342 274 q0 -27 15.5 -43t39.5 -16h78q96 0 137 115q0 10 2 32h-217q-23 0 -39 -17t-16 -40v-31z" />
<glyph unicode="&#xe3;" horiz-adv-x="968" d="M106 721q0 16 26 60t73 89q90 88 260 88q174 0 278.5 -98t104.5 -262v-578q0 -20 -21 -20h-174q-16 0 -21 19.5t-14 19.5q-4 0 -52 -19.5t-91 -19.5h-78q-127 0 -207.5 78t-80.5 196v11q0 121 80.5 197.5t207.5 76.5h197q20 0 20 19v4l-2 24q-6 63 -45 100t-102.5 37 t-112.5 -61q-10 -14 -21.5 -32.5t-17.5 -27t-14 -8.5q-4 0 -12 4l-168 89q-13 6 -13 14zM156 1182q0 23 51 88q72 90 158 90q63 0 139 -53l35 -25q29 -23 57 -22q27 0 48.5 20t34.5 40.5t21.5 20.5t14.5 -6l82 -65q8 -6 8 -17q0 -6 -2 -10q-90 -172 -207 -172q-63 0 -143 62 l-37 20q-23 20 -51 21q-33 0 -64 -37t-37 -37q-4 0 -12 4l-86 63q-10 7 -10 15zM342 274q0 -27 15.5 -43t39.5 -16h78q96 0 137 115q0 10 2 32h-217q-23 0 -39 -17t-16 -40v-31z" />
<glyph unicode="&#xe4;" horiz-adv-x="968" d="M106 721q0 16 26 60t73 89q90 88 260 88q174 0 278.5 -98t104.5 -262v-578q0 -20 -21 -20h-174q-16 0 -21 19.5t-14 19.5q-4 0 -52 -19.5t-91 -19.5h-78q-127 0 -207.5 78t-80.5 196v11q0 121 80.5 197.5t207.5 76.5h197q20 0 20 19v4l-2 24q-6 63 -45 100t-102.5 37 t-112.5 -61q-10 -14 -21.5 -32.5t-17.5 -27t-14 -8.5q-4 0 -12 4l-168 89q-13 6 -13 14zM178 1208q0 53 37 90t90 37t90 -36.5t37 -90t-37 -90.5t-90 -37q-55 0 -91 36t-36 91zM342 274q0 -27 15.5 -43t39.5 -16h78q96 0 137 115q0 10 2 32h-217q-23 0 -39 -17t-16 -40v-31z M524 1208q0 53 37 90t90.5 37t90 -36.5t36.5 -90t-36.5 -90.5t-90.5 -37q-55 0 -91 36t-36 91z" />
<glyph unicode="&#xe5;" horiz-adv-x="968" d="M111 721q0 16 25.5 60t72.5 89q90 88 260 88q174 0 278.5 -98t104.5 -262v-578q0 -20 -21 -20h-174q-16 0 -21 19.5t-13 19.5q-4 0 -52.5 -19.5t-91.5 -19.5h-78q-127 0 -207.5 78t-80.5 196v11q0 121 80.5 197.5t207.5 76.5h197q20 0 20 19v4l-2 24q-6 63 -45 100 t-102 37t-113 -61q-10 -14 -21 -32.5t-17.5 -27t-14.5 -8.5q-4 0 -12 4l-168 89q-12 6 -12 14zM279 1247v60q0 88 55 141t149 53q92 0 148.5 -54t56.5 -140v-60q0 -86 -56.5 -140t-148.5 -54q-94 0 -149 53t-55 141zM346 274q0 -27 15.5 -43t39.5 -16h78q96 0 137 115 q0 10 2 32h-217q-23 0 -39 -17t-16 -40v-31zM424 1247q0 -23 17.5 -40t42 -17t42 17.5t17.5 39.5v60q0 23 -18.5 41t-41.5 18q-25 0 -42 -18.5t-17 -40.5v-60z" />
<glyph unicode="&#xe6;" horiz-adv-x="1468" d="M88 254v39q0 119 83 196.5t212 77.5h213q20 0 20 21v4q0 61 -42 106t-103 45q-74 0 -117 -67q-8 -14 -17 -33.5t-14.5 -27t-13.5 -7.5q-6 0 -10 2l-176 88q-12 6 -12 17q0 49 94 143q100 100 266 100q74 0 136.5 -22.5t96 -46t35.5 -23.5q4 0 35 23.5t90.5 46t132.5 22.5 q96 0 183.5 -47t140.5 -127q57 -86 57 -188v-166q0 -20 -20 -20h-486q-20 0 -20 -21v-47q0 -61 42 -104t103 -43q80 0 133 98q23 41 33 41q2 0 11 -4l178 -90q12 -6 12 -15q0 -14 -25.5 -58t-72.5 -91q-96 -96 -269 -96q-121 0 -200 49q-23 14 -44.5 29.5t-30.5 22.5t-13 7 t-13.5 -7t-32 -24.5t-45.5 -31.5q-70 -45 -139 -45h-96q-131 0 -213 77.5t-82 196.5zM324 254q0 -27 16 -43t43 -16h96q84 0 133 110l4 27v26q-2 14 -20 15h-213q-27 0 -43 -16.5t-16 -43.5v-59zM856 625q0 -18 21 -19h243q20 0 21 19q0 45 -43 81.5t-100.5 36.5 t-99.5 -36.5t-42 -81.5z" />
<glyph unicode="&#xe7;" horiz-adv-x="878" d="M88 342v254q0 164 104.5 263t278.5 99q143 0 234 -67q53 -41 91 -96.5t38 -77.5q0 -10 -13 -17l-178 -88q-4 -2 -10 -2q-10 0 -29 35q-51 98 -133 98q-63 0 -105 -43t-42 -104v-254q0 -61 42 -104t105 -43q78 0 131 98q20 39 31 39q6 0 10 -2l178 -88q12 -6 13 -17 q0 -18 -48 -88q-84 -119 -217 -149l-24 -49q-4 -8 -4 -13q0 -6 6 -12q78 -68 78 -147v-17q0 -92 -63.5 -151.5t-164.5 -59.5h-121q-20 0 -20 21v135q0 20 20 20h121q14 0 25.5 11.5t11.5 23.5v17q0 14 -11 25t-26 11h-82q-23 0 -22 17q0 4 4 12l72 158q-135 33 -208 124 t-73 228z" />
<glyph unicode="&#xe8;" horiz-adv-x="940" d="M84 342v254q0 102 57 188q117 174 326 174q98 0 184 -46t140 -128q57 -86 57 -188v-166q0 -20 -21 -20h-487q-20 0 -21 -21v-47q0 -61 42 -104t106 -43q78 0 131 98q20 39 31 39q6 0 10 -2l178 -88q12 -6 12 -17q0 -45 -100 -151q-90 -94 -262 -94q-174 0 -278.5 99 t-104.5 263zM98 1378q0 16 23 17h258l16 -11l197 -301q4 -4 4 -14q0 -16 -21 -16h-149l-14 6l-306 301q-8 8 -8 18zM324 625q0 -18 20 -19h244q20 0 20 21q0 43 -44 79.5t-97 36.5q-57 0 -100 -36.5t-43 -81.5z" />
<glyph unicode="&#xe9;" horiz-adv-x="940" d="M84 342v254q0 102 57 188q117 174 326 174q98 0 184 -46t140 -128q57 -86 57 -188v-166q0 -20 -21 -20h-487q-20 0 -21 -21v-47q0 -61 42 -104t106 -43q78 0 131 98q20 39 31 39q6 0 10 -2l178 -88q12 -6 12 -17q0 -45 -100 -151q-90 -94 -262 -94q-174 0 -278.5 99 t-104.5 263zM324 625q0 -18 20 -19h244q20 0 20 21q0 43 -44 79.5t-97 36.5q-57 0 -100 -36.5t-43 -81.5zM342 1067q0 6 6 16l199 301l16 9h258q23 0 23 -19q0 -8 -8 -16l-306 -301l-14 -6h-151q-23 0 -23 16z" />
<glyph unicode="&#xea;" horiz-adv-x="940" d="M84 342v254q0 102 57 188q117 174 326 174q98 0 184 -46t140 -128q57 -86 57 -188v-166q0 -20 -21 -20h-487q-20 0 -21 -21v-47q0 -61 42 -104t106 -43q78 0 131 98q20 39 31 39q6 0 10 -2l178 -88q12 -6 12 -17q0 -45 -100 -151q-90 -94 -262 -94q-174 0 -278.5 99 t-104.5 263zM180 1067q0 6 6 16l213 301l17 9h100l16 -9l216 -301q6 -10 6 -16q0 -16 -23 -16h-166l-16 10l-68 104q-6 12 -14 12.5t-16 -12.5l-66 -104l-16 -10h-166q-23 0 -23 16zM324 625q0 -18 20 -19h244q20 0 20 21q0 43 -44 79.5t-97 36.5q-57 0 -100 -36.5 t-43 -81.5z" />
<glyph unicode="&#xeb;" horiz-adv-x="940" d="M84 342v254q0 102 57 188q117 174 326 174q98 0 184 -46t140 -128q57 -86 57 -188v-166q0 -20 -21 -20h-487q-20 0 -21 -21v-47q0 -61 42 -104t106 -43q78 0 131 98q20 39 31 39q6 0 10 -2l178 -88q12 -6 12 -17q0 -45 -100 -151q-90 -94 -262 -94q-174 0 -278.5 99 t-104.5 263zM164 1208q0 53 37 90t90 37t90 -36.5t37 -90t-37 -90.5t-90 -37q-55 0 -91 36t-36 91zM324 625q0 -18 20 -19h244q20 0 20 21q0 43 -44 79.5t-97 36.5q-57 0 -100 -36.5t-43 -81.5zM510 1208q0 53 37 90t90 37t90 -36.5t37 -90t-37 -90.5t-90 -37q-55 0 -91 36 t-36 91z" />
<glyph unicode="&#xec;" horiz-adv-x="471" d="M-137 1378q0 16 22 17h258l17 -11l196 -301q4 -4 4 -14q0 -16 -20 -16h-150l-14 6l-305 301q-8 8 -8 18zM113 20v898q0 20 20 20h193q20 0 20 -20v-898q0 -20 -20 -20h-193q-20 0 -20 20z" />
<glyph unicode="&#xed;" horiz-adv-x="471" d="M106 1067q0 6 7 16l198 301l17 9h258q23 0 22 -19q0 -8 -8 -16l-305 -301l-14 -6h-152q-23 0 -23 16zM113 20v898q0 20 20 20h193q20 0 20 -20v-898q0 -20 -20 -20h-193q-20 0 -20 20z" />
<glyph unicode="&#xee;" horiz-adv-x="471" d="M-55 1067q0 6 6 16l213 301l16 9h101l16 -9l215 -301q6 -10 6 -16q0 -16 -22 -16h-166l-17 10l-67 104q-6 12 -15 13q-6 0 -16 -13l-65 -104l-17 -10h-166q-22 0 -22 16zM113 20v898q0 20 20 20h193q20 0 20 -20v-898q0 -20 -20 -20h-193q-20 0 -20 20z" />
<glyph unicode="&#xef;" horiz-adv-x="471" d="M-72 1208q0 53 37 90t90.5 37t90 -36.5t36.5 -90t-36.5 -90.5t-90.5 -37q-55 0 -91 36t-36 91zM113 20v898q0 20 20 20h193q20 0 20 -20v-898q0 -20 -20 -20h-193q-20 0 -20 20zM274 1208q0 53 37 90t90.5 37t90 -36.5t36.5 -90t-36.5 -90.5t-90.5 -37q-55 0 -91 36 t-36 91z" />
<glyph unicode="&#xf0;" d="M137 342v78q0 150 107 260q96 102 241 102q53 0 107.5 -21.5t58.5 -21.5q14 0 15 23v82q0 23 -17 22q-6 0 -16 -6l-39 -26q-4 -4 -14 -5q-8 0 -15 9l-78 110q-4 4 -4 13q0 10 9 16l98 67q12 8 12 18.5t-23.5 22t-60.5 11.5q-84 0 -133 -97q-16 -37 -27 -36q-2 0 -10 4 l-176 88q-12 6 -12 14q0 51 94 148q90 94 264 94q119 0 197 -47q25 -14 48 -30.5t32.5 -24t13.5 -7.5q6 0 14 4l92 64q10 6 16.5 6t12.5 -10l74 -107q4 -4 4 -12q0 -10 -8 -17l-113 -79q-8 -8 -8 -23q0 -2 2 -11t4 -27.5t2 -41.5v-606q0 -162 -105.5 -262t-277.5 -100 t-276.5 99t-104.5 263zM373 342q0 -61 42 -104t103.5 -43t104.5 44t43 103v78q0 59 -43 103t-104.5 44t-103.5 -43t-42 -104v-78z" />
<glyph unicode="&#xf1;" horiz-adv-x="999" d="M115 20v898q0 20 20 20h174q16 0 22.5 -20.5t12.5 -20.5q4 0 58.5 20.5t109.5 20.5q158 0 261.5 -101.5t103.5 -258.5v-558q0 -20 -21 -20h-194q-20 0 -21 20v558q0 61 -41 103t-104.5 42t-105.5 -42t-42 -103v-558q0 -20 -20 -20h-193q-20 0 -20 20zM172 1182 q0 23 51 88q72 90 158 90q63 0 139 -53l35 -25q29 -23 57 -22q27 0 48.5 20t35 40.5t21.5 20.5t14 -6l82 -65q8 -6 8 -17q0 -6 -2 -10q-90 -172 -207 -172q-63 0 -143 62l-37 20q-23 20 -51 21q-33 0 -63.5 -37t-36.5 -37q-4 0 -13 4l-86 63q-10 7 -10 15z" />
<glyph unicode="&#xf2;" horiz-adv-x="940" d="M84 342v254q0 164 104.5 263t278.5 99q172 0 276.5 -99t104.5 -263v-254q0 -164 -104.5 -263t-276.5 -99q-174 0 -278.5 99t-104.5 263zM98 1378q0 16 23 17h258l16 -11l197 -301q4 -4 4 -14q0 -16 -21 -16h-149l-14 6l-306 301q-8 8 -8 18zM319 342q0 -61 42 -104 t106 -43q61 0 103 43t42 104v254q0 61 -42 104t-103 43q-63 0 -105.5 -43t-42.5 -104v-254z" />
<glyph unicode="&#xf3;" horiz-adv-x="940" d="M84 342v254q0 164 104.5 263t278.5 99q172 0 276.5 -99t104.5 -263v-254q0 -164 -104.5 -263t-276.5 -99q-174 0 -278.5 99t-104.5 263zM319 342q0 -61 42 -104t106 -43q61 0 103 43t42 104v254q0 61 -42 104t-103 43q-63 0 -105.5 -43t-42.5 -104v-254zM342 1067 q0 6 6 16l199 301l16 9h258q23 0 23 -19q0 -8 -8 -16l-306 -301l-14 -6h-151q-23 0 -23 16z" />
<glyph unicode="&#xf4;" horiz-adv-x="940" d="M84 342v254q0 164 104.5 263t278.5 99q172 0 276.5 -99t104.5 -263v-254q0 -164 -104.5 -263t-276.5 -99q-174 0 -278.5 99t-104.5 263zM180 1067q0 6 6 16l213 301l17 9h100l16 -9l216 -301q6 -10 6 -16q0 -16 -23 -16h-166l-16 10l-68 104q-6 12 -14 12.5t-16 -12.5 l-66 -104l-16 -10h-166q-23 0 -23 16zM319 342q0 -61 42 -104t106 -43q61 0 103 43t42 104v254q0 61 -42 104t-103 43q-63 0 -105.5 -43t-42.5 -104v-254z" />
<glyph unicode="&#xf5;" horiz-adv-x="940" d="M84 342v254q0 164 104.5 263t278.5 99q172 0 276.5 -99t104.5 -263v-254q0 -164 -104.5 -263t-276.5 -99q-174 0 -278.5 99t-104.5 263zM141 1182q0 23 52 88q72 90 157 90q63 0 139 -53l35 -25q29 -23 58 -22q37 0 67.5 40.5t36.5 40.5q8 0 14 -6l82 -65q8 -6 9 -17 q0 -6 -3 -10q-88 -172 -206 -172q-63 0 -144 62l-37 20q-23 20 -51 21q-33 0 -63.5 -37t-36.5 -37q-4 0 -12 4l-86 63q-11 7 -11 15zM319 342q0 -61 42 -104t106 -43q61 0 103 43t42 104v254q0 61 -42 104t-103 43q-63 0 -105.5 -43t-42.5 -104v-254z" />
<glyph unicode="&#xf6;" horiz-adv-x="940" d="M84 342v254q0 164 104.5 263t278.5 99q172 0 276.5 -99t104.5 -263v-254q0 -164 -104.5 -263t-276.5 -99q-174 0 -278.5 99t-104.5 263zM164 1208q0 53 37 90t90 37t90 -36.5t37 -90t-37 -90.5t-90 -37q-55 0 -91 36t-36 91zM319 342q0 -61 42 -104t106 -43q61 0 103 43 t42 104v254q0 61 -42 104t-103 43q-63 0 -105.5 -43t-42.5 -104v-254zM510 1208q0 53 37 90t90 37t90 -36.5t37 -90t-37 -90.5t-90 -37q-55 0 -91 36t-36 91z" />
<glyph unicode="&#xf7;" horiz-adv-x="1705" d="M254 512v199h1198v-199h-1198zM702 217.5q0 63.5 45.5 107.5t106.5 44t106.5 -44t45.5 -108q0 -61 -44 -105t-107.5 -44t-108 43t-44.5 106.5zM702 1003.5q0 63.5 45.5 107.5t106.5 44t106.5 -44t45.5 -107q0 -61 -44 -106.5t-107.5 -45.5t-108 44t-44.5 107.5z" />
<glyph unicode="&#xf8;" horiz-adv-x="940" d="M88 342v254q0 164 104.5 263t278.5 99q172 0 276.5 -99t104.5 -263v-254q0 -164 -104.5 -263t-276.5 -99q-174 0 -278.5 99t-104.5 263zM324 424q0 -25 18 -25q14 0 20 17l132 299q4 8 4 12q0 16 -23 16h-4q-63 0 -105 -42t-42 -105v-172zM434 211q0 -16 23 -16h14 q61 0 103 42t42 105v254q0 8 -12 8q-10 0 -12 -8l-154 -373q-4 -8 -4 -12z" />
<glyph unicode="&#xf9;" horiz-adv-x="978" d="M94 362v556q0 20 21 20h194q20 0 21 -20v-556q0 -63 41 -105t104.5 -42t105.5 43t42 104v556q0 20 20 20h193q20 0 20 -20v-898q0 -20 -20 -20h-174q-16 0 -21.5 20.5t-13.5 20.5q-4 0 -57.5 -20.5t-108.5 -20.5q-160 0 -263.5 101t-103.5 261zM119 1378q0 16 22 17h258 l17 -11l196 -301q4 -4 4 -14q0 -16 -20 -16h-150l-14 6l-305 301q-8 8 -8 18z" />
<glyph unicode="&#xfa;" horiz-adv-x="978" d="M94 362v556q0 20 21 20h194q20 0 21 -20v-556q0 -63 41 -105t104.5 -42t105.5 43t42 104v556q0 20 20 20h193q20 0 20 -20v-898q0 -20 -20 -20h-174q-16 0 -21.5 20.5t-13.5 20.5q-4 0 -57.5 -20.5t-108.5 -20.5q-160 0 -263.5 101t-103.5 261zM362 1067q0 6 7 16 l198 301l17 9h258q23 0 22 -19q0 -8 -8 -16l-305 -301l-14 -6h-152q-23 0 -23 16z" />
<glyph unicode="&#xfb;" horiz-adv-x="978" d="M94 362v556q0 20 21 20h194q20 0 21 -20v-556q0 -63 41 -105t104.5 -42t105.5 43t42 104v556q0 20 20 20h193q20 0 20 -20v-898q0 -20 -20 -20h-174q-16 0 -21.5 20.5t-13.5 20.5q-4 0 -57.5 -20.5t-108.5 -20.5q-160 0 -263.5 101t-103.5 261zM201 1067q0 6 6 16 l213 301l16 9h101l16 -9l215 -301q6 -10 6 -16q0 -16 -22 -16h-166l-17 10l-67 104q-6 12 -14.5 12.5t-16.5 -12.5l-65 -104l-17 -10h-166q-22 0 -22 16z" />
<glyph unicode="&#xfc;" horiz-adv-x="978" d="M94 362v556q0 20 21 20h194q20 0 21 -20v-556q0 -63 41 -105t104.5 -42t105.5 43t42 104v556q0 20 20 20h193q20 0 20 -20v-898q0 -20 -20 -20h-174q-16 0 -21.5 20.5t-13.5 20.5q-4 0 -57.5 -20.5t-108.5 -20.5q-160 0 -263.5 101t-103.5 261zM184 1208q0 53 37 90 t90.5 37t90 -36.5t36.5 -90t-36.5 -90.5t-90.5 -37q-55 0 -91 36t-36 91zM530 1208q0 53 37 90t90.5 37t90 -36.5t36.5 -90t-36.5 -90.5t-90.5 -37q-55 0 -91 36t-36 91z" />
<glyph unicode="&#xfd;" horiz-adv-x="978" d="M94 362v556q0 20 21 20h194q20 0 21 -20v-556q0 -63 41 -105t104.5 -42t105.5 43t42 104v556q0 20 20 20h193q20 0 20 -20v-1018q0 -176 -102.5 -278.5t-278.5 -102.5q-141 0 -233 65q-53 39 -90 95.5t-37 80.5q0 8 12 15l176 88q8 4 10 4q12 0 29 -37q53 -96 133 -96 q61 0 104.5 44t43.5 103v127q0 20 -15 21q-6 0 -49 -14.5t-84 -14.5q-172 0 -276.5 99t-104.5 263zM362 1067q0 6 7 16l198 301l17 9h258q23 0 22 -19q0 -8 -8 -16l-305 -301l-14 -6h-152q-23 0 -23 16z" />
<glyph unicode="&#xfe;" horiz-adv-x="968" d="M119 -440v1710q0 20 20 20h193q20 0 20 -20v-350q0 -23 15 -23q2 0 53 20.5t106 20.5q152 0 253.5 -101.5t101.5 -258.5v-216q0 -158 -102.5 -260t-260.5 -102q-43 0 -93 20.5t-58 20.5q-14 0 -15 -23v-458q0 -20 -20 -21h-193q-20 1 -20 21zM352 362q0 -61 42 -104 t105.5 -43t104.5 42t41 105v216q0 61 -41 103t-104.5 42t-105.5 -42t-42 -103v-216z" />
<glyph unicode="&#xff;" horiz-adv-x="978" d="M94 362v556q0 20 21 20h194q20 0 21 -20v-556q0 -63 41 -105t104.5 -42t105.5 43t42 104v556q0 20 20 20h193q20 0 20 -20v-1018q0 -176 -102.5 -278.5t-278.5 -102.5q-141 0 -233 65q-53 39 -90 95.5t-37 80.5q0 8 12 15l176 88q8 4 10 4q12 0 29 -37q53 -96 133 -96 q61 0 104.5 44t43.5 103v127q0 20 -15 21q-6 0 -49 -14.5t-84 -14.5q-172 0 -276.5 99t-104.5 263zM184 1208q0 53 37 90t90.5 37t90 -36.5t36.5 -90t-36.5 -90.5t-90.5 -37q-55 0 -91 36t-36 91zM530 1208q0 53 37 90t90.5 37t90 -36.5t36.5 -90t-36.5 -90.5t-90.5 -37 q-55 0 -91 36t-36 91z" />
<glyph unicode="&#x152;" horiz-adv-x="1536" d="M109 342v606q0 164 104 263.5t276 99.5h60q68 0 127 -21h762q20 0 20 -20v-174q0 -20 -20 -21h-500q-20 0 -20 -20q0 -4 6 -39t6 -68v-166q0 -20 20 -20h400q20 0 20 -21v-174q0 -20 -20 -20h-400q-20 0 -20 -21v-184q0 -35 -6 -69.5t-6 -36.5q0 -20 20 -21h500 q20 0 20 -20v-175q0 -20 -20 -20h-762q-59 -20 -127 -20h-60q-172 0 -276 99t-104 263zM342 342q0 -61 43 -104t104 -43h60q61 0 103 42t42 105v606q0 63 -42 105.5t-103 42.5h-60q-61 0 -104 -43t-43 -105v-606z" />
<glyph unicode="&#x153;" horiz-adv-x="1468" d="M88 342v254q0 164 104.5 263t278.5 99q76 0 139.5 -22.5t96 -45t34.5 -22.5q4 0 37 22.5t91.5 45t127.5 22.5q98 0 185.5 -46t138.5 -128q57 -86 57 -188v-166q0 -20 -20 -20h-486q-20 0 -20 -21v-51q0 -57 43 -100t102 -43q80 0 133 98q23 41 33 41q2 0 11 -4l178 -90 q12 -6 12 -15q0 -14 -25.5 -58t-72.5 -91q-96 -96 -269 -96q-76 0 -137 20t-93 40.5t-34 20.5t-34.5 -20.5t-94 -40.5t-133.5 -20q-174 0 -278.5 99t-104.5 263zM324 342q0 -61 42 -104t105 -43q61 0 103 43t42 104v254q0 61 -42 104t-103 43q-63 0 -105 -43t-42 -104v-254z M850 627q0 -20 20 -21h250q20 0 21 19q0 43 -44 80.5t-100 37.5q-96 0 -147 -106v-10z" />
<glyph unicode="&#x178;" horiz-adv-x="921" d="M-25 1274q0 16 23 16h227l19 -12l194 -401q6 -14 18.5 -14.5t18.5 14.5l195 401l18 12h225q23 0 23 -16q0 -2 -4 -14l-359 -672v-568q0 -20 -20 -20h-195q-20 0 -20 20v568l-358 672q-5 12 -5 14zM158 1561q0 53 36.5 90t90 37t90.5 -37t37 -90.5t-37 -90t-90 -36.5 q-55 0 -91 36t-36 91zM504 1561q0 53 37 90t90 37t90 -37t37 -90.5t-37 -90t-90 -36.5q-55 0 -91 36t-36 91z" />
<glyph unicode="&#x2c6;" horiz-adv-x="1024" d="M227 1067q0 6 6 16l213 301l17 9h100l17 -9l215 -301q6 -10 6 -16q0 -16 -23 -16h-166l-16 10l-68 104q-6 12 -14 13q-6 0 -16 -13l-66 -104l-16 -10h-166q-23 0 -23 16z" />
<glyph unicode="&#x2dc;" horiz-adv-x="1024" d="M188 1182q0 23 52 88q72 90 157 90q63 0 140 -53l34 -25q29 -23 58 -22q27 0 48 20t34.5 40.5t21.5 20.5t15 -6l81 -65q8 -6 9 -17q0 -6 -2 -10q-90 -172 -207 -172q-63 0 -144 62l-36 20q-23 20 -52 21q-33 0 -63.5 -37t-36.5 -37q-4 0 -12 4l-86 63q-11 7 -11 15z" />
<glyph unicode="&#x3bc;" horiz-adv-x="1249" d="M-63 -438l268 1530h289l-76 -435q-31 -170 -31 -268q0 -184 170 -184q104 0 158.5 87t89.5 286l90 514h289l-193 -1092h-268l18 117q-80 -150 -215 -150q-131 0 -213 121l-90 -526h-286z" />
<glyph unicode="&#x2000;" horiz-adv-x="917" />
<glyph unicode="&#x2001;" horiz-adv-x="1837" />
<glyph unicode="&#x2002;" horiz-adv-x="917" />
<glyph unicode="&#x2003;" horiz-adv-x="1837" />
<glyph unicode="&#x2004;" horiz-adv-x="612" />
<glyph unicode="&#x2005;" horiz-adv-x="458" />
<glyph unicode="&#x2006;" horiz-adv-x="305" />
<glyph unicode="&#x2007;" horiz-adv-x="305" />
<glyph unicode="&#x2008;" horiz-adv-x="229" />
<glyph unicode="&#x2009;" horiz-adv-x="366" />
<glyph unicode="&#x200a;" horiz-adv-x="100" />
<glyph unicode="&#x2010;" horiz-adv-x="569" d="M80 373v192q0 20 20 21h369q20 0 20 -21v-192q0 -20 -20 -21h-369q-20 1 -20 21z" />
<glyph unicode="&#x2011;" horiz-adv-x="569" d="M80 373v192q0 20 20 21h369q20 0 20 -21v-192q0 -20 -20 -21h-369q-20 1 -20 21z" />
<glyph unicode="&#x2012;" horiz-adv-x="569" d="M80 373v192q0 20 20 21h369q20 0 20 -21v-192q0 -20 -20 -21h-369q-20 1 -20 21z" />
<glyph unicode="&#x2013;" d="M31 430v135q0 20 20 21h936q20 0 21 -21v-135q0 -20 -21 -20h-936q-20 0 -20 20z" />
<glyph unicode="&#x2014;" horiz-adv-x="1566" d="M31 430v135q0 20 20 21h1465q20 0 20 -21v-135q0 -20 -20 -20h-1465q-20 0 -20 20z" />
<glyph unicode="&#x2018;" horiz-adv-x="387" d="M70 893v141q0 168 75 256q37 43 75 67.5t54 24.5q10 0 17 -12l53 -104q4 -8 4 -13q0 -8 -22.5 -22t-46 -42t-23.5 -65q0 -25 20 -24h17q20 0 20 -21v-186q0 -20 -20 -21h-203q-20 1 -20 21z" />
<glyph unicode="&#x2019;" horiz-adv-x="387" d="M43 911q0 6 21.5 21.5t44 43.5t22.5 62q0 23 -20 23h-17q-20 0 -20 20v189q0 20 20 20h203q20 0 20 -20v-142q0 -166 -75 -254q-35 -43 -73 -66.5t-54 -23.5q-8 0 -15 13l-53 102q-4 8 -4 12z" />
<glyph unicode="&#x201a;" horiz-adv-x="387" d="M43 -106q0 6 21.5 22t44 44t22.5 63q0 23 -20 22h-17q-20 0 -20 21v188q0 20 20 20h203q20 0 20 -20v-143q0 -168 -73 -254q-37 -43 -75 -66.5t-54 -23.5q-8 0 -15 10l-53 104q-4 9 -4 13z" />
<glyph unicode="&#x201c;" horiz-adv-x="708" d="M70 893v141q0 168 75 256q37 43 75 67.5t54 24.5q10 0 17 -12l53 -104q4 -8 4 -13q0 -8 -22.5 -22t-46 -42t-23.5 -65q0 -25 20 -24h17q20 0 20 -21v-186q0 -20 -20 -21h-203q-20 1 -20 21zM391 893v141q0 170 76 254q39 45 76 69.5t53 24.5q10 0 16 -12l54 -104 q2 -4 2 -11q0 -10 -13 -18q-6 -4 -19 -14.5t-19.5 -14.5t-16.5 -14t-14 -18.5t-7.5 -21.5t-3.5 -30q0 -25 21 -24h18q20 0 21 -21v-186q0 -20 -21 -21h-202q-21 1 -21 21z" />
<glyph unicode="&#x201d;" horiz-adv-x="708" d="M43 911q0 6 21.5 21.5t44 43.5t22.5 62q0 23 -20 23h-17q-20 0 -20 20v189q0 20 20 20h203q20 0 20 -20v-142q0 -166 -75 -254q-35 -43 -73 -66.5t-54 -23.5q-8 0 -15 13l-53 102q-4 8 -4 12zM362 911q0 8 15 19q55 43 67 65q8 18 9 43q0 23 -21 23h-18q-20 0 -21 20v189 q0 20 21 20h204q20 0 21 -20v-142q0 -166 -74 -251q-37 -43 -73.5 -68t-53.5 -25q-8 0 -14 13l-57 104q-5 8 -5 10z" />
<glyph unicode="&#x201e;" horiz-adv-x="708" d="M43 -106q0 6 21.5 22t44 44t22.5 63q0 23 -20 22h-17q-20 0 -20 21v188q0 20 20 20h203q20 0 20 -20v-143q0 -168 -73 -254q-37 -43 -75 -66.5t-54 -23.5q-8 0 -15 10l-53 104q-4 9 -4 13zM362 -106q0 6 23 22t45.5 44t22.5 63q0 23 -21 22h-18q-20 0 -21 21v188 q0 20 21 20h204q20 0 21 -20v-143q0 -166 -74 -252q-37 -45 -73.5 -68.5t-53.5 -23.5q-8 0 -14 10l-57 104q-5 9 -5 13z" />
<glyph unicode="&#x2022;" horiz-adv-x="901" d="M125 625v41q0 135 88 218t233 83h9q145 0 233 -83t88 -218v-41q0 -135 -88 -219t-233 -84h-9q-145 0 -233 84t-88 219z" />
<glyph unicode="&#x2026;" horiz-adv-x="937" d="M119 358v60q0 78 43 139q76 104 76 106.5t-9 14.5q-6 8 -30.5 40t-32.5 44t-22.5 37.5t-19.5 49t-5 50.5v29q0 174 104.5 278.5t278.5 104.5h57q174 0 268 -97q45 -45 70 -88t25 -57q0 -8 -13 -14l-176 -90l-12 -4q-8 0 -27 32q-55 102 -135 103h-57q-61 0 -104.5 -43 t-43.5 -105v-28q0 -61 43 -104.5t105 -43.5h184q20 0 21 -20v-174q0 -20 -21 -21h-184q-63 0 -105.5 -42t-42.5 -103v-70q0 -61 43 -104t105 -43h57q96 0 143 120q2 14 17 15q6 0 10 -2l178 -88q12 -6 13 -17q0 -16 -25 -58t-70 -89q-92 -96 -266 -96h-57q-176 0 -279.5 102 t-103.5 276z" />
<glyph unicode="&#x202f;" horiz-adv-x="366" />
<glyph unicode="&#x2039;" horiz-adv-x="702" d="M98 502v145l8 17l443 315q8 6 16 6q16 0 17 -22v-183l-9 -16l-241 -172q-10 -8 -10 -16.5t10 -16.5l241 -174l9 -16v-181q0 -23 -17 -22q-8 0 -16 6l-443 313z" />
<glyph unicode="&#x203a;" horiz-adv-x="702" d="M121 188v181l8 16l240 174q10 6 10 16.5t-10 16.5l-240 172l-8 16v183q0 23 16 22q6 0 17 -6l442 -315l8 -17v-145l-8 -17l-442 -313q-10 -6 -17 -6q-16 -1 -16 22z" />
<glyph unicode="&#x205f;" horiz-adv-x="458" />
<glyph unicode="&#x20ac;" d="M16 432l41 137q6 20 21 21h88q20 0 20 20v82q0 20 -20 21h-129q-27 0 -21 20l41 137q6 20 21 21h88q20 0 20 20v37q0 164 104.5 263.5t276.5 99.5h60q150 0 237 -68q53 -39 89 -95t36 -79q0 -10 -10 -16l-184 -88q-2 -2 -9 -2q-8 0 -26 34q-25 51 -53.5 75t-79.5 24h-60 q-61 0 -104 -43t-43 -105v-37q0 -20 20 -20h400q10 0 16 -6t4 -15l-41 -137q-6 -20 -20 -20h-359q-20 0 -20 -21v-82q0 -20 20 -20h310q10 0 16 -6t4 -15l-41 -137q-6 -20 -20 -20h-269q-20 0 -20 -21v-49q0 -61 43 -104t104 -43h60q53 0 80.5 22.5t52.5 75.5q16 39 26 39 q6 0 9 -2l184 -88q10 -6 10 -17q0 -51 -92 -151q-53 -57 -116.5 -75.5t-153.5 -18.5h-60q-172 0 -276.5 99t-104.5 263v49q0 20 -20 21h-129q-27 0 -21 20z" />
<glyph unicode="&#x2122;" horiz-adv-x="876" d="M82 1079v23q0 20 20 20h217q20 0 21 -20v-23q0 -20 -21 -20h-55q-20 0 -20 -21v-280q0 -20 -21 -21h-24q-20 0 -21 21v280q0 20 -20 21h-56q-20 0 -20 20zM418 758v344q0 20 20 20h25l18 -10l97 -166q10 -14 18 -14t18 14l97 166l18 10h25q20 0 20 -20v-344 q0 -20 -20 -21h-25q-20 0 -20 21v147q0 25 -21 25q-8 0 -18 -15l-52 -84l-18 -10h-8l-17 10l-55 84q-8 12 -20 13q-16 0 -17 -23v-147q0 -20 -20 -21h-25q-20 1 -20 21z" />
<glyph unicode="&#xe000;" horiz-adv-x="940" d="M0 940h940v-940h-940v940z" />
<glyph unicode="&#xfb01;" horiz-adv-x="1028" d="M59 655v174q0 20 21 21h47q20 0 20 20v58q0 90 41 171t111 128q121 84 227 84q31 0 31 -23v-174q0 -6 -1 -9t-5 -6t-8 -5t-11.5 -3t-14.5 -3.5t-19.5 -4.5t-22.5 -4q-37 -8 -64.5 -46t-27.5 -85v-78q0 -20 20 -20h134q20 0 20 -21v-174q0 -20 -20 -20h-134q-20 0 -20 -21 v-594q0 -20 -21 -20h-194q-20 0 -21 20v594q0 20 -20 21h-47q-21 0 -21 20zM657 1173.5q0 57.5 40 97.5t95.5 40t96.5 -41t41 -96.5t-41 -96.5t-96.5 -41t-95.5 40t-40 97.5zM676 20v898q0 20 20 20h195q20 0 20 -20v-898q0 -20 -20 -20h-195q-20 0 -20 20z" />
<glyph unicode="&#xfb02;" horiz-adv-x="1034" d="M59 655v174q0 20 21 21h47q20 0 20 20v39q0 160 111 270.5t270 110.5h369q20 0 21 -20v-1250q0 -20 -21 -20h-195q-20 0 -20 20v1035q0 20 -20 20h-134q-61 0 -103 -42t-42 -105v-58q0 -20 20 -20h134q20 0 20 -21v-174q0 -20 -20 -20h-134q-20 0 -20 -21v-594 q0 -20 -21 -20h-194q-20 0 -21 20v594q0 20 -20 21h-47q-21 0 -21 20z" />
<glyph unicode="&#xfb03;" horiz-adv-x="1667" d="M1294 1173.5q0 57.5 40 97.5t98 40q55 0 96 -41t41 -96.5t-41 -96.5t-96 -41q-57 0 -97.5 40t-40.5 97.5zM1315 20v898q0 20 20 20h193q20 0 20 -20v-898q0 -20 -20 -20h-193q-20 0 -20 20zM657 655v174q0 20 21 21h47q20 0 20 20v58q0 152 113 270q104 113 268 113 q147 0 148 -33v-4l-2 -4l-62 -172q-4 -14 -22 -15q-8 0 -28.5 6.5t-33.5 6.5q-61 0 -103 -43t-42 -105v-78q0 -20 20 -20h134q20 0 20 -21v-174q0 -20 -20 -20h-134q-20 0 -20 -21v-594q0 -20 -21 -20h-194q-20 0 -21 20v594q0 20 -20 21h-47q-21 0 -21 20zM59 655v174 q0 20 21 21h47q20 0 20 20v58q0 152 113 270q104 113 268 113q147 0 148 -33v-4l-2 -4l-62 -172q-4 -14 -22 -15q-8 0 -28.5 6.5t-33.5 6.5q-61 0 -103 -43t-42 -105v-78q0 -20 20 -20h134q20 0 20 -21v-174q0 -20 -20 -20h-134q-20 0 -20 -21v-594q0 -20 -21 -20h-194 q-20 0 -21 20v594q0 20 -20 21h-47q-21 0 -21 20z" />
<glyph unicode="&#xfb04;" horiz-adv-x="1667" d="M1315 20v1250q0 20 20 20h193q20 0 20 -20v-1250q0 -20 -20 -20h-193q-20 0 -20 20zM657 655v174q0 20 21 21h47q20 0 20 20v58q0 152 113 270q104 113 268 113q147 0 148 -33v-4l-2 -4l-62 -172q-4 -14 -22 -15q-8 0 -28.5 6.5t-33.5 6.5q-61 0 -103 -43t-42 -105v-78 q0 -20 20 -20h134q20 0 20 -21v-174q0 -20 -20 -20h-134q-20 0 -20 -21v-594q0 -20 -21 -20h-194q-20 0 -21 20v594q0 20 -20 21h-47q-21 0 -21 20zM59 655v174q0 20 21 21h47q20 0 20 20v58q0 152 113 270q104 113 268 113q147 0 148 -33v-4l-2 -4l-62 -172q-4 -14 -22 -15 q-8 0 -28.5 6.5t-33.5 6.5q-61 0 -103 -43t-42 -105v-78q0 -20 20 -20h134q20 0 20 -21v-174q0 -20 -20 -20h-134q-20 0 -20 -21v-594q0 -20 -21 -20h-194q-20 0 -21 20v594q0 20 -20 21h-47q-21 0 -21 20z" />
</font>
</defs>
</svg>
